<svg width="28" height="28" viewBox="0 0 28 28" fill="none" xmlns="http://www.w3.org/2000/svg">
<g clip-path="url(#clip0_269_649)">
<g clip-path="url(#clip1_269_649)">
<g clip-path="url(#clip2_269_649)">
<mask id="mask0_269_649" style="mask-type:luminance" maskUnits="userSpaceOnUse" x="0" y="0" width="28" height="28">
<path d="M0 0H28V28H0V0Z" fill="white"/>
</mask>
<g mask="url(#mask0_269_649)">
<mask id="mask1_269_649" style="mask-type:luminance" maskUnits="userSpaceOnUse" x="0" y="0" width="28" height="28">
<path d="M28 0H0V28H28V0Z" fill="white"/>
</mask>
<g mask="url(#mask1_269_649)">
<path d="M14 0C14.0017 5.16483 20.2458 7.75133 23.8992 4.10083C20.2493 7.75367 22.8357 13.9977 28 14C22.8352 14.0017 20.2487 20.2458 23.8992 23.8992C20.2463 20.2493 14.0023 22.8357 14 28C13.9982 22.8352 7.75425 20.2487 4.10083 23.8992C7.75075 20.2463 5.16425 14.0023 0 14C5.16483 13.9982 7.75133 7.75425 4.10083 4.10083C7.75367 7.75075 13.9977 5.16425 14 0Z" fill="url(#paint0_linear_269_649)"/>
</g>
</g>
</g>
</g>
</g>
<defs>
<linearGradient id="paint0_linear_269_649" x1="14" y1="0" x2="14" y2="28" gradientUnits="userSpaceOnUse">
<stop stop-color="#3F5BE8"/>
<stop offset="1" stop-color="#8B7AFF"/>
</linearGradient>
<clipPath id="clip0_269_649">
<rect width="28" height="28" fill="white"/>
</clipPath>
<clipPath id="clip1_269_649">
<rect width="28" height="28" fill="white"/>
</clipPath>
<clipPath id="clip2_269_649">
<rect width="28" height="28" fill="white"/>
</clipPath>
</defs>
</svg>
