<svg width="1280" height="501" viewBox="0 0 1280 501" fill="none" xmlns="http://www.w3.org/2000/svg">
<path d="M1296 33H1186C1174.95 33 1166 41.9543 1166 53V449C1166 460.046 1157.05 469 1146 469H888C876.954 469 868 460.046 868 449V53C868 41.9543 859.046 33 848 33H566C554.954 33 546 41.9543 546 53V449C546 460.046 537.046 469 526 469H152C140.954 469 132 460.046 132 449V53C132 41.9543 123.046 33 112 33H-41" stroke="#9EBAFF" stroke-opacity="0.5"/>
<rect x="57.25" y="0.25" width="64.5" height="64.5" rx="9.75" fill="url(#paint0_radial_454_9)" stroke="url(#paint1_linear_454_9)" stroke-width="0.5"/>
<rect x="629.25" y="0.25" width="64.5" height="64.5" rx="9.75" fill="url(#paint2_radial_454_9)" stroke="url(#paint3_linear_454_9)" stroke-width="0.5"/>
<rect x="895.25" y="436.25" width="64.5" height="64.5" rx="9.75" fill="url(#paint4_radial_454_9)" stroke="url(#paint5_linear_454_9)" stroke-width="0.5"/>
<rect x="300.25" y="436.25" width="64.5" height="64.5" rx="9.75" fill="url(#paint6_radial_454_9)" stroke="url(#paint7_linear_454_9)" stroke-width="0.5"/>
<path d="M933.936 455.5H939.629L939.754 455.517L939.877 455.553L939.952 455.585C940.052 455.628 940.144 455.691 940.226 455.772L940.276 455.828L940.331 455.899L940.399 456.011L940.447 456.124L940.471 456.204L940.489 456.284L940.5 456.402V462.068C940.5 462.305 940.41 462.534 940.248 462.707C940.085 462.881 939.863 462.986 939.626 463.003C939.389 463.019 939.155 462.944 938.971 462.794C938.787 462.645 938.666 462.43 938.634 462.195L938.625 462.068V458.699L930.575 466.749C930.416 466.908 930.206 467.004 929.982 467.021C929.758 467.038 929.536 466.973 929.355 466.84L929.25 466.75L925.462 463.113L918.35 470.224C918.183 470.391 917.958 470.49 917.721 470.499C917.485 470.507 917.253 470.426 917.074 470.272C916.895 470.117 916.78 469.9 916.754 469.665C916.728 469.429 916.792 469.193 916.934 469.003L917.025 468.898L924.8 461.123C924.959 460.964 925.169 460.868 925.393 460.851C925.617 460.835 925.84 460.899 926.02 461.033L926.125 461.123L929.912 464.76L937.297 457.375H933.935C933.709 457.375 933.49 457.293 933.32 457.144C933.149 456.995 933.038 456.789 933.007 456.565L932.999 456.438C932.999 456.211 933.081 455.992 933.23 455.821C933.379 455.651 933.584 455.54 933.809 455.509L933.936 455.5ZM917.687 474.25C917.936 474.25 918.175 474.349 918.35 474.525C918.526 474.7 918.625 474.939 918.625 475.188V479.562C918.625 479.811 918.526 480.05 918.35 480.225C918.175 480.401 917.936 480.5 917.687 480.5C917.439 480.5 917.2 480.401 917.025 480.225C916.849 480.05 916.75 479.811 916.75 479.562V475.188C916.75 474.939 916.849 474.7 917.025 474.525C917.2 474.349 917.439 474.25 917.687 474.25ZM924.875 470.188C924.875 469.939 924.776 469.7 924.6 469.525C924.425 469.349 924.186 469.25 923.937 469.25C923.689 469.25 923.45 469.349 923.275 469.525C923.099 469.7 923 469.939 923 470.188V479.562C923 479.811 923.099 480.05 923.275 480.225C923.45 480.401 923.689 480.5 923.937 480.5C924.186 480.5 924.425 480.401 924.6 480.225C924.776 480.05 924.875 479.811 924.875 479.562V470.188ZM930.187 471.75C930.436 471.75 930.675 471.849 930.85 472.025C931.026 472.2 931.125 472.439 931.125 472.688V479.562C931.125 479.811 931.026 480.05 930.85 480.225C930.675 480.401 930.436 480.5 930.187 480.5C929.939 480.5 929.7 480.401 929.525 480.225C929.349 480.05 929.25 479.811 929.25 479.562V472.688C929.25 472.439 929.349 472.2 929.525 472.025C929.7 471.849 929.939 471.75 930.187 471.75ZM937.375 466.438C937.375 466.189 937.276 465.95 937.1 465.775C936.925 465.599 936.686 465.5 936.437 465.5C936.189 465.5 935.95 465.599 935.775 465.775C935.599 465.95 935.5 466.189 935.5 466.438V479.562C935.5 479.811 935.599 480.05 935.775 480.225C935.95 480.401 936.189 480.5 936.437 480.5C936.686 480.5 936.925 480.401 937.1 480.225C937.276 480.05 937.375 479.811 937.375 479.562V466.438Z" fill="#FFE9E9"/>
<path d="M338.333 473.333C338.333 471.584 333.371 470.167 327.25 470.167M338.333 473.333C338.333 475.083 333.371 476.5 327.25 476.5C321.129 476.5 316.167 475.083 316.167 473.333M338.333 473.333V481.15C338.333 482.954 333.371 484.417 327.25 484.417C321.129 484.417 316.167 482.955 316.167 481.15V473.333M338.333 473.333C344.388 473.333 349.417 471.77 349.417 470.167V454.333M327.25 470.167C321.129 470.167 316.167 471.584 316.167 473.333M327.25 470.167C320.255 470.167 314.583 468.604 314.583 467V459.083M327.25 455.917C320.255 455.917 314.583 457.334 314.583 459.083M314.583 459.083C314.583 460.833 320.255 462.25 327.25 462.25C327.25 463.854 332.401 465.417 338.455 465.417C344.51 465.417 349.417 463.854 349.417 462.25M349.417 454.333C349.417 452.584 344.508 451.167 338.455 451.167C332.402 451.167 327.494 452.584 327.494 454.333M349.417 454.333C349.417 456.083 344.508 457.5 338.455 457.5C332.402 457.5 327.494 456.083 327.494 454.333M327.494 454.333V470.429" stroke="#F9F9FF" stroke-width="2"/>
<path d="M657.312 42.6125C656.59 44.1916 654.179 47.8752 647.406 47.8752C647.066 47.8752 646.741 47.7402 646.5 47.4999C646.26 47.2597 646.125 46.9338 646.125 46.594C646.125 39.821 649.809 37.4106 651.388 36.6883C651.541 36.6185 651.706 36.5795 651.874 36.5736C652.043 36.5677 652.21 36.5949 652.368 36.6538C652.526 36.7127 652.67 36.8021 652.793 36.9168C652.916 37.0315 653.016 37.1694 653.085 37.3225C653.155 37.4756 653.194 37.641 653.2 37.8092C653.206 37.9774 653.179 38.1451 653.12 38.3027C653.061 38.4603 652.972 38.6048 652.857 38.7279C652.742 38.851 652.604 38.9504 652.451 39.0202C651.421 39.4894 649.149 40.9997 648.748 45.2519C653.001 44.8515 654.514 42.5788 654.98 41.549C655.05 41.3959 655.149 41.2581 655.272 41.1433C655.395 41.0286 655.54 40.9392 655.698 40.8803C655.855 40.8214 656.023 40.7942 656.191 40.8001C656.359 40.806 656.525 40.845 656.678 40.9148C656.831 40.9846 656.969 41.084 657.083 41.2071C657.198 41.3302 657.288 41.4747 657.346 41.6323C657.405 41.7899 657.433 41.9576 657.427 42.1258C657.421 42.294 657.382 42.4594 657.312 42.6125ZM676.851 19.55C676.813 18.9253 676.548 18.336 676.105 17.8935C675.663 17.4509 675.073 17.1856 674.449 17.1476C672.434 17.0275 667.285 17.2117 663.013 21.4831L655.094 29.4092C654.975 29.5283 654.834 29.6229 654.678 29.6875C654.523 29.752 654.356 29.7853 654.188 29.7855C653.848 29.7858 653.521 29.651 653.281 29.4108C653.04 29.1706 652.905 28.8446 652.905 28.5046C652.904 28.1647 653.039 27.8385 653.279 27.5978L657.533 23.3425C657.622 23.2529 657.683 23.139 657.707 23.0151C657.732 22.8912 657.719 22.7628 657.671 22.646C657.622 22.5293 657.541 22.4295 657.436 22.359C657.331 22.2886 657.208 22.2507 657.081 22.2502H652.908C652.57 22.2484 652.236 22.3138 651.923 22.4425C651.611 22.5711 651.328 22.7606 651.09 22.9997L645.596 28.4963C645.26 28.833 645.023 29.2569 644.914 29.7204C644.804 30.184 644.826 30.6688 644.977 31.1206C645.128 31.5723 645.402 31.9731 645.768 32.2779C646.134 32.5827 646.578 32.7795 647.049 32.8462L653.21 33.7062L660.291 40.7867L661.151 46.9511C661.217 47.4227 661.414 47.8664 661.719 48.2321C662.024 48.5978 662.425 48.8708 662.877 49.0203C663.141 49.1083 663.417 49.1532 663.694 49.1533C664.03 49.154 664.363 49.0881 664.674 48.9595C664.985 48.8308 665.267 48.6419 665.504 48.4037L671 42.9104C671.239 42.6716 671.428 42.3882 671.557 42.0762C671.685 41.7643 671.751 41.43 671.75 41.0926V36.9189C671.75 36.7923 671.712 36.6686 671.642 36.5634C671.571 36.4582 671.471 36.3762 671.354 36.3279C671.237 36.2796 671.108 36.267 670.984 36.2918C670.86 36.3166 670.746 36.3777 670.656 36.4673L666.401 40.721C666.276 40.8456 666.128 40.9432 665.964 41.0077C665.8 41.0722 665.624 41.1023 665.448 41.0959C665.272 41.0896 665.1 41.0471 664.941 40.971C664.782 40.895 664.641 40.787 664.525 40.6538C664.315 40.3995 664.208 40.0755 664.226 39.7461C664.244 39.4168 664.385 39.1061 664.621 38.876L672.512 30.9851C676.787 26.7122 676.971 21.5631 676.851 19.5468V19.55Z" fill="#E6E6FF"/>
<path fill-rule="evenodd" clip-rule="evenodd" d="M94.2084 33.6774V30.3649C94.2084 29.2503 92.1167 28.3545 89.5209 28.3545C86.9292 28.3545 84.8354 29.2503 84.8354 30.3649V33.6774C84.8875 34.7712 86.9709 35.6462 89.5229 35.6462C92.075 35.6462 94.1584 34.7712 94.2104 33.6774M89.0021 34.6982V32.8128C91.2729 33.0212 92.8271 32.2503 93.1688 31.8337V33.6774C92.0771 34.7295 89.8354 34.792 89.0021 34.6982ZM89.5229 31.8649C91.4625 31.8649 93.0354 31.2607 93.0354 30.5212C93.0354 29.792 91.4729 29.1774 89.525 29.1774C87.5875 29.1774 86.0146 29.7816 86.0146 30.5316C86.0146 31.2607 87.575 31.8649 89.5229 31.8649Z" fill="white"/>
<path fill-rule="evenodd" clip-rule="evenodd" d="M104.625 26.1981C104.625 25.0835 102.531 24.1877 99.9376 24.1877C98.7292 24.1877 97.6251 24.3856 96.7917 24.7085L94.2084 23.6772V22.0314C94.2084 20.9168 92.1147 20.021 89.5209 20.021C86.9272 20.021 84.8334 20.9168 84.8334 22.0314V23.3647L81.8126 24.5522C80.9319 24.302 80.0198 24.1792 79.1042 24.1877C76.5105 24.1877 74.4167 25.0835 74.4167 26.1981V27.4481L68.1667 29.8856V35.5522L89.1563 43.9793L109.833 35.9377V29.8856L104.625 27.8231V26.1981ZM94.2084 25.3439C94.1563 26.4377 92.073 27.3127 89.5209 27.3127C86.9688 27.3127 84.8855 26.4377 84.8334 25.3439V24.3231L82.9376 25.0418C83.4792 25.3647 83.7917 25.771 83.7917 26.1981V29.5106C83.7397 30.6043 81.6563 31.4793 79.1042 31.4793C76.5522 31.4793 74.4688 30.6043 74.4167 29.5106V28.2606L69.9897 29.9272L89.0313 37.3022L108.354 29.9272L104.625 28.5418V29.5106C104.573 30.6043 102.49 31.4793 99.9376 31.4793C97.3855 31.4793 95.3022 30.6043 95.2501 29.5106V26.1981C95.2501 25.8543 95.448 25.5418 95.7917 25.2606L94.2084 24.6668V25.3439ZM90.0417 38.0731V42.6252L108.792 35.4377V30.7397L90.0417 38.0731ZM93.0313 22.1877C93.0313 22.9272 91.4688 23.5418 89.5209 23.5418C87.5834 23.5418 86.0105 22.9272 86.0105 22.1877C86.0105 21.4585 87.573 20.8439 89.5209 20.8439C91.4584 20.8439 93.0313 21.4481 93.0313 22.1981V22.1877ZM89.0001 24.4793V26.3543C89.8334 26.4585 92.073 26.396 93.1667 25.3439V23.5002C92.823 23.9168 91.2709 24.6877 89.0001 24.4793ZM82.6147 26.3543C82.6147 27.0939 81.0522 27.7085 79.1042 27.7085C77.1667 27.7085 75.5938 27.0939 75.5938 26.3543C75.5938 25.6252 77.1563 25.0106 79.1042 25.0106C81.0417 25.0106 82.6147 25.6147 82.6147 26.3647V26.3543ZM78.5834 28.646V30.521C79.4167 30.6252 81.6563 30.5627 82.7501 29.5106V27.6668C82.4063 28.0835 80.8542 28.8543 78.5834 28.646ZM103.448 26.3543C103.448 27.0939 101.886 27.7085 99.9376 27.7085C98.0001 27.7085 96.4272 27.0939 96.4272 26.3543C96.4272 25.6252 97.9897 25.0106 99.9376 25.0106C101.875 25.0106 103.448 25.6147 103.448 26.3647V26.3543ZM99.4167 28.646V30.521C100.25 30.6252 102.49 30.5627 103.583 29.5106V27.6668C103.24 28.0835 101.688 28.8543 99.4167 28.646Z" fill="white"/>
<defs>
<radialGradient id="paint0_radial_454_9" cx="0" cy="0" r="1" gradientUnits="userSpaceOnUse" gradientTransform="translate(89.5 32.5) rotate(179.045) scale(30.0042)">
<stop offset="0.3" stop-color="#1717A5"/>
<stop offset="1" stop-color="#0E0E52"/>
</radialGradient>
<linearGradient id="paint1_linear_454_9" x1="89.5" y1="0" x2="89.5" y2="65" gradientUnits="userSpaceOnUse">
<stop stop-color="#7EA3FF" stop-opacity="0.18"/>
<stop offset="1" stop-color="#81A5FF" stop-opacity="0.5"/>
</linearGradient>
<radialGradient id="paint2_radial_454_9" cx="0" cy="0" r="1" gradientUnits="userSpaceOnUse" gradientTransform="translate(661.5 32.5) rotate(179.045) scale(30.0042)">
<stop offset="0.3" stop-color="#1717A5"/>
<stop offset="1" stop-color="#0E0E52"/>
</radialGradient>
<linearGradient id="paint3_linear_454_9" x1="661.5" y1="0" x2="661.5" y2="65" gradientUnits="userSpaceOnUse">
<stop stop-color="#7EA3FF" stop-opacity="0.18"/>
<stop offset="1" stop-color="#81A5FF" stop-opacity="0.5"/>
</linearGradient>
<radialGradient id="paint4_radial_454_9" cx="0" cy="0" r="1" gradientUnits="userSpaceOnUse" gradientTransform="translate(927.5 468.5) rotate(179.045) scale(30.0042)">
<stop offset="0.3" stop-color="#1717A5"/>
<stop offset="1" stop-color="#0E0E52"/>
</radialGradient>
<linearGradient id="paint5_linear_454_9" x1="927.5" y1="436" x2="927.5" y2="501" gradientUnits="userSpaceOnUse">
<stop stop-color="#7EA3FF" stop-opacity="0.18"/>
<stop offset="1" stop-color="#81A5FF" stop-opacity="0.5"/>
</linearGradient>
<radialGradient id="paint6_radial_454_9" cx="0" cy="0" r="1" gradientUnits="userSpaceOnUse" gradientTransform="translate(332.5 468.5) rotate(179.045) scale(30.0042)">
<stop offset="0.3" stop-color="#1717A5"/>
<stop offset="1" stop-color="#0E0E52"/>
</radialGradient>
<linearGradient id="paint7_linear_454_9" x1="332.5" y1="436" x2="332.5" y2="501" gradientUnits="userSpaceOnUse">
<stop stop-color="#7EA3FF" stop-opacity="0.18"/>
<stop offset="1" stop-color="#81A5FF" stop-opacity="0.5"/>
</linearGradient>
</defs>
</svg>
