<svg width="28" height="28" viewBox="0 0 28 28" fill="none" xmlns="http://www.w3.org/2000/svg">
<g clip-path="url(#clip0_269_492)">
<g clip-path="url(#clip1_269_492)">
<path fill-rule="evenodd" clip-rule="evenodd" d="M18.0046 2.28681C16.2155 -0.762271 11.8073 -0.762271 10.0182 2.28681L9.95345 2.39765C9.54772 3.0891 8.9694 3.66335 8.2751 4.06419C7.58079 4.46502 6.7943 4.6787 5.99262 4.68431L5.86429 4.68548C2.32929 4.70998 0.124288 8.52789 1.87079 11.6021L1.93437 11.7129C2.33041 12.41 2.53863 13.1981 2.53863 13.9999C2.53863 14.8016 2.33041 15.5897 1.93437 16.2868L1.87079 16.3982C0.124872 19.4724 2.32871 23.2903 5.86429 23.3148L5.99262 23.316C6.79429 23.3216 7.58076 23.5353 8.27505 23.9362C8.96935 24.337 9.54768 24.9112 9.95345 25.6026L10.0176 25.7135C11.8073 28.7626 16.2155 28.7626 18.0046 25.7135L18.0694 25.6026C18.4751 24.9112 19.0535 24.337 19.7478 23.9362C20.4421 23.5353 21.2285 23.3216 22.0302 23.316L22.1585 23.3148C25.6935 23.2903 27.8985 19.4724 26.152 16.3982L26.0879 16.2874C25.6918 15.5903 25.4836 14.8022 25.4836 14.0004C25.4836 13.1987 25.6918 12.4106 26.0879 11.7135L26.152 11.6021C27.898 8.52789 25.6941 4.70998 22.1585 4.68548L22.0302 4.68431C21.2285 4.6787 20.442 4.46502 19.7477 4.06419C19.0534 3.66335 18.4751 3.0891 18.0694 2.39765L18.0046 2.28681ZM14.0117 20.9447C17.8465 20.9447 20.9557 17.8356 20.9557 14.0001C20.9557 10.1647 17.8465 7.05556 14.0117 7.05556C10.1757 7.05556 7.06654 10.1647 7.06654 14.0001C7.06654 17.8356 10.1757 20.9447 14.0111 20.9447H14.0117Z" fill="url(#paint0_linear_269_492)"/>
</g>
</g>
<defs>
<linearGradient id="paint0_linear_269_492" x1="14.0111" y1="0.000145833" x2="14.0111" y2="28.0001" gradientUnits="userSpaceOnUse">
<stop stop-color="#2044DA"/>
<stop offset="1" stop-color="#5985FF"/>
</linearGradient>
<clipPath id="clip0_269_492">
<rect width="28" height="28" fill="white"/>
</clipPath>
<clipPath id="clip1_269_492">
<rect width="28" height="28" fill="white"/>
</clipPath>
</defs>
</svg>
