<svg width="28" height="28" viewBox="0 0 28 28" fill="none" xmlns="http://www.w3.org/2000/svg">
<g clip-path="url(#clip0_269_668)">
<mask id="mask0_269_668" style="mask-type:luminance" maskUnits="userSpaceOnUse" x="3" y="3" width="22" height="22">
<path d="M24.5 3.5H3.5V24.5H24.5V3.5Z" fill="white"/>
</mask>
<g mask="url(#mask0_269_668)">
<path fill-rule="evenodd" clip-rule="evenodd" d="M8.82525 3.5H3.57525V8.75C3.57536 10.0268 4.04068 11.2599 4.88415 12.2185C5.72763 13.177 6.89147 13.7955 8.15792 13.958C6.87634 14.1037 5.69322 14.716 4.83416 15.6781C3.9751 16.6403 3.5002 17.8849 3.5 19.1747V24.4247H8.75C10.0268 24.4246 11.2599 23.9593 12.2185 23.1158C13.177 22.2724 13.7955 21.1085 13.958 19.8421C14.1036 21.1237 14.7159 22.3069 15.678 23.166C16.6402 24.0251 17.8849 24.4999 19.1747 24.5H24.4247V19.25C24.4246 17.9732 23.9593 16.7401 23.1158 15.7815C22.2724 14.823 21.1085 14.2045 19.8421 14.042C21.1237 13.8964 22.3069 13.2841 23.166 12.322C24.0251 11.3598 24.4999 10.1151 24.5 8.82525V3.57525H19.25C17.9732 3.57536 16.7401 4.04068 15.7815 4.88415C14.823 5.72763 14.2045 6.89147 14.042 8.15792C13.8964 6.87629 13.2841 5.6931 12.322 4.83401C11.3598 3.97493 10.1151 3.50007 8.82525 3.5Z" fill="url(#paint0_linear_269_668)"/>
</g>
</g>
<defs>
<linearGradient id="paint0_linear_269_668" x1="14" y1="3.5" x2="14" y2="24.5" gradientUnits="userSpaceOnUse">
<stop stop-color="#3F5BE8"/>
<stop offset="1" stop-color="#8B7AFF"/>
</linearGradient>
<clipPath id="clip0_269_668">
<rect width="28" height="28" fill="white"/>
</clipPath>
</defs>
</svg>
