<svg width="82" height="32" viewBox="0 0 82 32" fill="none" xmlns="http://www.w3.org/2000/svg">
<g opacity="0.5" clip-path="url(#clip0_11_2567)">
<g clip-path="url(#clip1_11_2567)">
<g clip-path="url(#clip2_11_2567)">
<path d="M2.6211 10.2121L2.58908 10.4922C2.55706 10.8653 2.56773 11.2367 2.6211 11.5996C2.78119 12.6135 3.11473 13.5875 3.6217 14.4813C4.07531 15.2503 4.53641 16.0197 4.9999 16.7831L5.34789 17.3544C5.52203 17.6394 5.69632 17.9233 5.8705 18.2059L6.21862 18.7689C10.4504 25.5942 14.5083 31.4516 14.5083 31.4516L5.07591 24.8743C2.8479 23.1799 1.46039 20.605 1.26027 17.8034C1.1402 16.616 1.1402 15.4019 1.22025 14.2145C1.38034 13.0805 1.72722 11.9732 2.23419 10.9459C2.23419 10.9459 2.48768 10.4522 2.6211 10.2121ZM24.2608 17.0029C24.2608 17.0029 25.0213 18.297 25.3282 18.9507C26.0753 20.605 26.0619 22.5129 25.2615 24.1672C25.0046 24.6341 24.6559 25.05 24.2331 25.3701L24.0474 25.5013L15.5222 31.4516L24.2475 17.0029C24.2475 17.0029 24.2496 17.0064 24.2536 17.0132L24.2608 17.0029ZM75.8254 7.7973C77.6264 7.82399 79.4275 8.07747 81.1753 8.55776C81.2153 8.57111 81.2286 8.59779 81.2286 8.63781V11.146C81.2286 11.176 81.2061 11.206 81.178 11.2192L81.1486 11.226H78.8939C78.8639 11.226 78.8338 11.2035 78.8207 11.1754L78.8138 11.146V10.3855C77.8266 10.1721 76.826 10.052 75.8254 10.0387C74.8381 10.052 73.8508 10.1721 72.8769 10.3855L72.8903 13.8009L81.1753 16.696C81.202 16.7094 81.2286 16.736 81.2286 16.7761V23.6335C81.2286 23.6736 81.2153 23.7003 81.1753 23.7136C79.4409 24.1939 77.6531 24.4607 75.852 24.4741C74.051 24.4474 72.2499 24.1939 70.5021 23.7136C70.4621 23.7003 70.4488 23.6736 70.4488 23.6335V21.1254C70.4488 21.0953 70.4713 21.0653 70.4994 21.0522L70.5288 21.0453H72.7702C72.8102 21.032 72.8636 21.0587 72.8769 21.0987V21.8858C73.8642 22.0993 74.8648 22.2194 75.8654 22.2327C76.8526 22.206 77.8399 22.0993 78.8138 21.8858V18.2703L70.5021 15.3619C70.4755 15.3485 70.4488 15.3219 70.4488 15.2818V8.63781C70.4488 8.59779 70.4621 8.57111 70.5021 8.55776C72.2365 8.07747 74.0243 7.81064 75.8254 7.7973ZM55.413 8.09081C55.4397 8.09081 55.4664 8.10416 55.4797 8.13084L62.9242 19.431V8.1842C62.9242 8.15419 62.9467 8.12417 62.9749 8.11103L63.0043 8.10416H65.299C65.329 8.10416 65.359 8.12667 65.3722 8.15481L65.379 8.1842V24.1539C65.379 24.1839 65.3565 24.2139 65.3284 24.227L65.299 24.2339H63.1777C63.1377 24.2206 63.111 24.2072 63.0977 24.1805L55.6665 12.867V24.1405C55.6665 24.1705 55.644 24.2006 55.6158 24.2137L55.5865 24.2206H53.2917C53.2617 24.2206 53.2317 24.1981 53.2186 24.1699L53.2117 24.1405V8.17086C53.2117 8.14084 53.2342 8.11083 53.2623 8.09769L53.2917 8.09081H55.413ZM48.0619 8.07747C48.1019 8.07747 48.142 8.1175 48.142 8.15752V10.1988C48.142 10.2388 48.1019 10.2788 48.0619 10.2788H40.2839V14.9883H46.9145C46.9446 14.9883 46.9746 15.0108 46.9877 15.039L46.9946 15.0684V17.0829C46.9946 17.1129 46.9721 17.143 46.9439 17.1561L46.9145 17.163H40.2839V22.0192H48.0752C48.1053 22.0192 48.1353 22.0417 48.1484 22.0699L48.1553 22.0993V24.1405C48.1553 24.1705 48.1328 24.2006 48.1046 24.2137L48.0752 24.2206H37.9224C37.8691 24.2206 37.8291 24.1939 37.8291 24.1405V8.15752C37.8291 8.1175 37.8691 8.07747 37.9091 8.07747H48.0619ZM15.5489 0.539581L24.9813 7.11689C27.2093 8.81125 28.5968 11.3861 28.7969 14.1878C28.7971 14.1897 28.7973 14.1917 28.7975 14.1936L28.8103 14.1878C28.9303 15.3886 28.9303 16.5893 28.8369 17.79C28.6769 18.924 28.33 20.0314 27.823 21.0587C27.823 21.0587 27.5695 21.5523 27.4361 21.7924C27.4369 21.787 27.4377 21.7815 27.4384 21.776C27.4628 21.5923 27.4788 21.4055 27.4841 21.2196V20.9548C27.4788 20.7699 27.4628 20.5864 27.4361 20.4049C27.276 19.391 26.9425 18.4171 26.4355 17.5232C26.3221 17.3309 26.2082 17.1387 26.094 16.9465L25.7501 16.3702C25.6926 16.2743 25.6351 16.1783 25.5774 16.0825L25.231 15.508C20.6607 7.95564 15.7954 0.909371 15.558 0.566012L15.5489 0.552923L15.5672 0.566074C15.5551 0.548509 15.5489 0.539581 15.5489 0.539581ZM14.535 0.552923L5.79635 15.0017C5.79635 15.0017 5.79415 14.9979 5.78994 14.9907L5.78301 15.0017C5.78301 15.0017 5.02255 13.7075 4.71569 13.0538C3.96858 11.3861 3.99526 9.47832 4.7824 7.83733C5.07591 7.30367 5.4895 6.83672 5.99647 6.50319L14.5216 0.552923L14.5115 0.568218L14.535 0.552923Z" fill="white"/>
</g>
</g>
</g>
<defs>
<clipPath id="clip0_11_2567">
<rect width="81" height="31.91" fill="white" transform="translate(0.5 0.0499878)"/>
</clipPath>
<clipPath id="clip1_11_2567">
<rect width="81" height="31.91" fill="white" transform="translate(0.5 0.0499878)"/>
</clipPath>
<clipPath id="clip2_11_2567">
<rect width="81" height="31.9091" fill="white" transform="translate(0.5 0.0504456)"/>
</clipPath>
</defs>
</svg>
