<svg width="1280" height="784" viewBox="0 0 1280 784" fill="none" xmlns="http://www.w3.org/2000/svg">
<g clip-path="url(#clip0_223_35)">
<g filter="url(#filter0_f_223_35)">
<path d="M1397.5 784H-101.5H-117V585L281 292H991L1397.5 585V784Z" fill="url(#paint0_linear_223_35)"/>
</g>
<g filter="url(#filter1_f_223_35)">
<path d="M356 44L357.35 47.6495L361 49L357.35 50.3505L356 54L354.65 50.3505L351 49L354.65 47.6495L356 44Z" fill="#D9D9D9"/>
</g>
<g filter="url(#filter2_f_223_35)">
<path d="M441 114L442.35 117.65L446 119L442.35 120.35L441 124L439.65 120.35L436 119L439.65 117.65L441 114Z" fill="#D9D9D9"/>
</g>
<g filter="url(#filter3_f_223_35)">
<path d="M299.5 124L300.445 126.555L303 127.5L300.445 128.445L299.5 131L298.555 128.445L296 127.5L298.555 126.555L299.5 124Z" fill="#D9D9D9"/>
</g>
<g filter="url(#filter4_f_223_35)">
<path d="M137.5 120L138.445 122.555L141 123.5L138.445 124.445L137.5 127L136.555 124.445L134 123.5L136.555 122.555L137.5 120Z" fill="#D9D9D9"/>
</g>
<g filter="url(#filter5_f_223_35)">
<path d="M249.5 69L250.715 72.2846L254 73.5L250.715 74.7154L249.5 78L248.285 74.7154L245 73.5L248.285 72.2846L249.5 69Z" fill="#D9D9D9"/>
</g>
<g filter="url(#filter6_f_223_35)">
<path d="M300 216L301.08 218.92L304 220L301.08 221.08L300 224L298.92 221.08L296 220L298.92 218.92L300 216Z" fill="#D9D9D9"/>
</g>
<g filter="url(#filter7_f_223_35)">
<path d="M192 261L193.08 263.92L196 265L193.08 266.08L192 269L190.92 266.08L188 265L190.92 263.92L192 261Z" fill="#D9D9D9"/>
</g>
<g filter="url(#filter8_f_223_35)">
<path d="M369 93L370.08 95.9196L373 97L370.08 98.0804L369 101L367.92 98.0804L365 97L367.92 95.9196L369 93Z" fill="#D9D9D9"/>
</g>
<g filter="url(#filter9_f_223_35)">
<path d="M465.5 54L465.905 55.0949L467 55.5L465.905 55.9051L465.5 57L465.095 55.9051L464 55.5L465.095 55.0949L465.5 54Z" fill="#D9D9D9"/>
</g>
<g filter="url(#filter10_f_223_35)">
<path d="M415.5 12L415.905 13.0949L417 13.5L415.905 13.9051L415.5 15L415.095 13.9051L414 13.5L415.095 13.0949L415.5 12Z" fill="#D9D9D9"/>
</g>
<g filter="url(#filter11_f_223_35)">
<path d="M676.5 0L676.905 1.09486L678 1.5L676.905 1.90514L676.5 3L676.095 1.90514L675 1.5L676.095 1.09486L676.5 0Z" fill="#D9D9D9"/>
</g>
<g filter="url(#filter12_f_223_35)">
<path d="M577.5 57L577.905 58.0949L579 58.5L577.905 58.9051L577.5 60L577.095 58.9051L576 58.5L577.095 58.0949L577.5 57Z" fill="#D9D9D9"/>
</g>
<g filter="url(#filter13_f_223_35)">
<path d="M550 3L551.35 6.64955L555 8L551.35 9.35045L550 13L548.65 9.35045L545 8L548.65 6.64955L550 3Z" fill="#D9D9D9"/>
</g>
<g filter="url(#filter14_f_223_35)">
<path d="M807 3L807.81 5.18973L810 6L807.81 6.81027L807 9L806.19 6.81027L804 6L806.19 5.18973L807 3Z" fill="#D9D9D9"/>
</g>
<g filter="url(#filter15_f_223_35)">
<path d="M635 129L636.35 132.65L640 134L636.35 135.35L635 139L633.65 135.35L630 134L633.65 132.65L635 129Z" fill="#D9D9D9"/>
</g>
<g filter="url(#filter16_f_223_35)">
<path d="M843 88L844.35 91.6495L848 93L844.35 94.3505L843 98L841.65 94.3505L838 93L841.65 91.6495L843 88Z" fill="#D9D9D9"/>
</g>
<g filter="url(#filter17_f_223_35)">
<path d="M914 39L915.35 42.6495L919 44L915.35 45.3505L914 49L912.65 45.3505L909 44L912.65 42.6495L914 39Z" fill="#D9D9D9"/>
</g>
<g filter="url(#filter18_f_223_35)">
<path d="M699 39L700.35 42.6495L704 44L700.35 45.3505L699 49L697.65 45.3505L694 44L697.65 42.6495L699 39Z" fill="#D9D9D9"/>
</g>
<g filter="url(#filter19_f_223_35)">
<path d="M935 114L936.35 117.65L940 119L936.35 120.35L935 124L933.65 120.35L930 119L933.65 117.65L935 114Z" fill="#D9D9D9"/>
</g>
<g filter="url(#filter20_f_223_35)">
<path d="M978 239L979.35 242.65L983 244L979.35 245.35L978 249L976.65 245.35L973 244L976.65 242.65L978 239Z" fill="#D9D9D9"/>
</g>
<g filter="url(#filter21_f_223_35)">
<path d="M1055 164L1056.35 167.65L1060 169L1056.35 170.35L1055 174L1053.65 170.35L1050 169L1053.65 167.65L1055 164Z" fill="#D9D9D9"/>
</g>
<g filter="url(#filter22_f_223_35)">
<path d="M1065 73L1066.35 76.6495L1070 78L1066.35 79.3505L1065 83L1063.65 79.3505L1060 78L1063.65 76.6495L1065 73Z" fill="#D9D9D9"/>
</g>
<g filter="url(#filter23_f_223_35)">
<path d="M1090 234L1091.35 237.65L1095 239L1091.35 240.35L1090 244L1088.65 240.35L1085 239L1088.65 237.65L1090 234Z" fill="#D9D9D9"/>
</g>
<g filter="url(#filter24_f_223_35)">
<path d="M204.5 189L205.175 190.825L207 191.5L205.175 192.175L204.5 194L203.825 192.175L202 191.5L203.825 190.825L204.5 189Z" fill="#D9D9D9"/>
</g>
<g filter="url(#filter25_f_223_35)">
<path d="M1147.5 159L1148.18 160.825L1150 161.5L1148.18 162.175L1147.5 164L1146.82 162.175L1145 161.5L1146.82 160.825L1147.5 159Z" fill="#D9D9D9"/>
</g>
</g>
<defs>
<filter id="filter0_f_223_35" x="-215.4" y="193.6" width="1711.3" height="688.8" filterUnits="userSpaceOnUse" color-interpolation-filters="sRGB">
<feFlood flood-opacity="0" result="BackgroundImageFix"/>
<feBlend mode="normal" in="SourceGraphic" in2="BackgroundImageFix" result="shape"/>
<feGaussianBlur stdDeviation="49.2" result="effect1_foregroundBlur_223_35"/>
</filter>
<filter id="filter1_f_223_35" x="349" y="42" width="14" height="14" filterUnits="userSpaceOnUse" color-interpolation-filters="sRGB">
<feFlood flood-opacity="0" result="BackgroundImageFix"/>
<feBlend mode="normal" in="SourceGraphic" in2="BackgroundImageFix" result="shape"/>
<feGaussianBlur stdDeviation="1" result="effect1_foregroundBlur_223_35"/>
</filter>
<filter id="filter2_f_223_35" x="434" y="112" width="14" height="14" filterUnits="userSpaceOnUse" color-interpolation-filters="sRGB">
<feFlood flood-opacity="0" result="BackgroundImageFix"/>
<feBlend mode="normal" in="SourceGraphic" in2="BackgroundImageFix" result="shape"/>
<feGaussianBlur stdDeviation="1" result="effect1_foregroundBlur_223_35"/>
</filter>
<filter id="filter3_f_223_35" x="294" y="122" width="11" height="11" filterUnits="userSpaceOnUse" color-interpolation-filters="sRGB">
<feFlood flood-opacity="0" result="BackgroundImageFix"/>
<feBlend mode="normal" in="SourceGraphic" in2="BackgroundImageFix" result="shape"/>
<feGaussianBlur stdDeviation="1" result="effect1_foregroundBlur_223_35"/>
</filter>
<filter id="filter4_f_223_35" x="132" y="118" width="11" height="11" filterUnits="userSpaceOnUse" color-interpolation-filters="sRGB">
<feFlood flood-opacity="0" result="BackgroundImageFix"/>
<feBlend mode="normal" in="SourceGraphic" in2="BackgroundImageFix" result="shape"/>
<feGaussianBlur stdDeviation="1" result="effect1_foregroundBlur_223_35"/>
</filter>
<filter id="filter5_f_223_35" x="243" y="67" width="13" height="13" filterUnits="userSpaceOnUse" color-interpolation-filters="sRGB">
<feFlood flood-opacity="0" result="BackgroundImageFix"/>
<feBlend mode="normal" in="SourceGraphic" in2="BackgroundImageFix" result="shape"/>
<feGaussianBlur stdDeviation="1" result="effect1_foregroundBlur_223_35"/>
</filter>
<filter id="filter6_f_223_35" x="293" y="213" width="14" height="14" filterUnits="userSpaceOnUse" color-interpolation-filters="sRGB">
<feFlood flood-opacity="0" result="BackgroundImageFix"/>
<feBlend mode="normal" in="SourceGraphic" in2="BackgroundImageFix" result="shape"/>
<feGaussianBlur stdDeviation="1.5" result="effect1_foregroundBlur_223_35"/>
</filter>
<filter id="filter7_f_223_35" x="185" y="258" width="14" height="14" filterUnits="userSpaceOnUse" color-interpolation-filters="sRGB">
<feFlood flood-opacity="0" result="BackgroundImageFix"/>
<feBlend mode="normal" in="SourceGraphic" in2="BackgroundImageFix" result="shape"/>
<feGaussianBlur stdDeviation="1.5" result="effect1_foregroundBlur_223_35"/>
</filter>
<filter id="filter8_f_223_35" x="363" y="91" width="12" height="12" filterUnits="userSpaceOnUse" color-interpolation-filters="sRGB">
<feFlood flood-opacity="0" result="BackgroundImageFix"/>
<feBlend mode="normal" in="SourceGraphic" in2="BackgroundImageFix" result="shape"/>
<feGaussianBlur stdDeviation="1" result="effect1_foregroundBlur_223_35"/>
</filter>
<filter id="filter9_f_223_35" x="462" y="52" width="7" height="7" filterUnits="userSpaceOnUse" color-interpolation-filters="sRGB">
<feFlood flood-opacity="0" result="BackgroundImageFix"/>
<feBlend mode="normal" in="SourceGraphic" in2="BackgroundImageFix" result="shape"/>
<feGaussianBlur stdDeviation="1" result="effect1_foregroundBlur_223_35"/>
</filter>
<filter id="filter10_f_223_35" x="412" y="10" width="7" height="7" filterUnits="userSpaceOnUse" color-interpolation-filters="sRGB">
<feFlood flood-opacity="0" result="BackgroundImageFix"/>
<feBlend mode="normal" in="SourceGraphic" in2="BackgroundImageFix" result="shape"/>
<feGaussianBlur stdDeviation="1" result="effect1_foregroundBlur_223_35"/>
</filter>
<filter id="filter11_f_223_35" x="673" y="-2" width="7" height="7" filterUnits="userSpaceOnUse" color-interpolation-filters="sRGB">
<feFlood flood-opacity="0" result="BackgroundImageFix"/>
<feBlend mode="normal" in="SourceGraphic" in2="BackgroundImageFix" result="shape"/>
<feGaussianBlur stdDeviation="1" result="effect1_foregroundBlur_223_35"/>
</filter>
<filter id="filter12_f_223_35" x="574" y="55" width="7" height="7" filterUnits="userSpaceOnUse" color-interpolation-filters="sRGB">
<feFlood flood-opacity="0" result="BackgroundImageFix"/>
<feBlend mode="normal" in="SourceGraphic" in2="BackgroundImageFix" result="shape"/>
<feGaussianBlur stdDeviation="1" result="effect1_foregroundBlur_223_35"/>
</filter>
<filter id="filter13_f_223_35" x="543" y="1" width="14" height="14" filterUnits="userSpaceOnUse" color-interpolation-filters="sRGB">
<feFlood flood-opacity="0" result="BackgroundImageFix"/>
<feBlend mode="normal" in="SourceGraphic" in2="BackgroundImageFix" result="shape"/>
<feGaussianBlur stdDeviation="1" result="effect1_foregroundBlur_223_35"/>
</filter>
<filter id="filter14_f_223_35" x="802" y="1" width="10" height="10" filterUnits="userSpaceOnUse" color-interpolation-filters="sRGB">
<feFlood flood-opacity="0" result="BackgroundImageFix"/>
<feBlend mode="normal" in="SourceGraphic" in2="BackgroundImageFix" result="shape"/>
<feGaussianBlur stdDeviation="1" result="effect1_foregroundBlur_223_35"/>
</filter>
<filter id="filter15_f_223_35" x="628" y="127" width="14" height="14" filterUnits="userSpaceOnUse" color-interpolation-filters="sRGB">
<feFlood flood-opacity="0" result="BackgroundImageFix"/>
<feBlend mode="normal" in="SourceGraphic" in2="BackgroundImageFix" result="shape"/>
<feGaussianBlur stdDeviation="1" result="effect1_foregroundBlur_223_35"/>
</filter>
<filter id="filter16_f_223_35" x="836" y="86" width="14" height="14" filterUnits="userSpaceOnUse" color-interpolation-filters="sRGB">
<feFlood flood-opacity="0" result="BackgroundImageFix"/>
<feBlend mode="normal" in="SourceGraphic" in2="BackgroundImageFix" result="shape"/>
<feGaussianBlur stdDeviation="1" result="effect1_foregroundBlur_223_35"/>
</filter>
<filter id="filter17_f_223_35" x="907" y="37" width="14" height="14" filterUnits="userSpaceOnUse" color-interpolation-filters="sRGB">
<feFlood flood-opacity="0" result="BackgroundImageFix"/>
<feBlend mode="normal" in="SourceGraphic" in2="BackgroundImageFix" result="shape"/>
<feGaussianBlur stdDeviation="1" result="effect1_foregroundBlur_223_35"/>
</filter>
<filter id="filter18_f_223_35" x="692" y="37" width="14" height="14" filterUnits="userSpaceOnUse" color-interpolation-filters="sRGB">
<feFlood flood-opacity="0" result="BackgroundImageFix"/>
<feBlend mode="normal" in="SourceGraphic" in2="BackgroundImageFix" result="shape"/>
<feGaussianBlur stdDeviation="1" result="effect1_foregroundBlur_223_35"/>
</filter>
<filter id="filter19_f_223_35" x="928" y="112" width="14" height="14" filterUnits="userSpaceOnUse" color-interpolation-filters="sRGB">
<feFlood flood-opacity="0" result="BackgroundImageFix"/>
<feBlend mode="normal" in="SourceGraphic" in2="BackgroundImageFix" result="shape"/>
<feGaussianBlur stdDeviation="1" result="effect1_foregroundBlur_223_35"/>
</filter>
<filter id="filter20_f_223_35" x="971" y="237" width="14" height="14" filterUnits="userSpaceOnUse" color-interpolation-filters="sRGB">
<feFlood flood-opacity="0" result="BackgroundImageFix"/>
<feBlend mode="normal" in="SourceGraphic" in2="BackgroundImageFix" result="shape"/>
<feGaussianBlur stdDeviation="1" result="effect1_foregroundBlur_223_35"/>
</filter>
<filter id="filter21_f_223_35" x="1048" y="162" width="14" height="14" filterUnits="userSpaceOnUse" color-interpolation-filters="sRGB">
<feFlood flood-opacity="0" result="BackgroundImageFix"/>
<feBlend mode="normal" in="SourceGraphic" in2="BackgroundImageFix" result="shape"/>
<feGaussianBlur stdDeviation="1" result="effect1_foregroundBlur_223_35"/>
</filter>
<filter id="filter22_f_223_35" x="1058" y="71" width="14" height="14" filterUnits="userSpaceOnUse" color-interpolation-filters="sRGB">
<feFlood flood-opacity="0" result="BackgroundImageFix"/>
<feBlend mode="normal" in="SourceGraphic" in2="BackgroundImageFix" result="shape"/>
<feGaussianBlur stdDeviation="1" result="effect1_foregroundBlur_223_35"/>
</filter>
<filter id="filter23_f_223_35" x="1083" y="232" width="14" height="14" filterUnits="userSpaceOnUse" color-interpolation-filters="sRGB">
<feFlood flood-opacity="0" result="BackgroundImageFix"/>
<feBlend mode="normal" in="SourceGraphic" in2="BackgroundImageFix" result="shape"/>
<feGaussianBlur stdDeviation="1" result="effect1_foregroundBlur_223_35"/>
</filter>
<filter id="filter24_f_223_35" x="200" y="187" width="9" height="9" filterUnits="userSpaceOnUse" color-interpolation-filters="sRGB">
<feFlood flood-opacity="0" result="BackgroundImageFix"/>
<feBlend mode="normal" in="SourceGraphic" in2="BackgroundImageFix" result="shape"/>
<feGaussianBlur stdDeviation="1" result="effect1_foregroundBlur_223_35"/>
</filter>
<filter id="filter25_f_223_35" x="1143" y="157" width="9" height="9" filterUnits="userSpaceOnUse" color-interpolation-filters="sRGB">
<feFlood flood-opacity="0" result="BackgroundImageFix"/>
<feBlend mode="normal" in="SourceGraphic" in2="BackgroundImageFix" result="shape"/>
<feGaussianBlur stdDeviation="1" result="effect1_foregroundBlur_223_35"/>
</filter>
<linearGradient id="paint0_linear_223_35" x1="672" y1="784.5" x2="685" y2="237.5" gradientUnits="userSpaceOnUse">
<stop stop-color="#0201A7" stop-opacity="0.29"/>
<stop offset="1" stop-color="#010123"/>
</linearGradient>
<clipPath id="clip0_223_35">
<rect width="1280" height="784" fill="white"/>
</clipPath>
</defs>
</svg>
