<svg width="28" height="28" viewBox="0 0 28 28" fill="none" xmlns="http://www.w3.org/2000/svg">
<g clip-path="url(#clip0_269_635)">
<g clip-path="url(#clip1_269_635)">
<g clip-path="url(#clip2_269_635)">
<mask id="mask0_269_635" style="mask-type:luminance" maskUnits="userSpaceOnUse" x="0" y="0" width="28" height="28">
<path d="M0 0H28V28H0V0Z" fill="white"/>
</mask>
<g mask="url(#mask0_269_635)">
<mask id="mask1_269_635" style="mask-type:luminance" maskUnits="userSpaceOnUse" x="0" y="0" width="28" height="28">
<path d="M28 0H0V28H28V0Z" fill="white"/>
</mask>
<g mask="url(#mask1_269_635)">
<path fill-rule="evenodd" clip-rule="evenodd" d="M13.9995 23.7661C14.791 24.7169 15.5826 25.6666 17.1664 25.6666C20.8116 25.6666 21.8645 20.8185 21.8657 17.168C21.8657 15.5848 22.816 14.7933 23.7662 14.0011C24.7165 13.2095 25.6667 12.4179 25.6667 10.8348C25.6667 7.18834 20.8116 6.13367 17.1675 6.13367C15.5844 6.13367 14.7922 5.184 14.0006 4.23375C13.209 3.28292 12.4175 2.33325 10.8337 2.33325C7.18729 2.33325 6.13321 7.18834 6.13321 10.8318C6.13321 12.415 5.18296 13.2072 4.23329 13.9988C3.28304 14.7903 2.33337 15.5819 2.33337 17.1657C2.33337 20.8115 7.18729 21.8662 10.8325 21.8662C12.4157 21.8662 13.2079 22.8158 13.9995 23.7661ZM14 18.3166C14.5669 18.3166 15.1282 18.2049 15.652 17.988C16.1757 17.7711 16.6515 17.4531 17.0524 17.0523C17.4532 16.6514 17.7712 16.1756 17.9881 15.6518C18.2051 15.1281 18.3167 14.5668 18.3167 13.9999C18.3167 13.433 18.2051 12.8717 17.9881 12.348C17.7712 11.8243 17.4532 11.3484 17.0524 10.9476C16.6515 10.5467 16.1757 10.2288 15.652 10.0118C15.1282 9.79491 14.5669 9.68325 14 9.68325C12.8552 9.68325 11.7572 10.138 10.9477 10.9476C10.1382 11.7571 9.68337 12.8551 9.68337 13.9999C9.68337 15.1448 10.1382 16.2427 10.9477 17.0523C11.7572 17.8618 12.8552 18.3166 14 18.3166Z" fill="url(#paint0_linear_269_635)"/>
</g>
</g>
</g>
</g>
</g>
<defs>
<linearGradient id="paint0_linear_269_635" x1="14" y1="2.33325" x2="14" y2="25.6666" gradientUnits="userSpaceOnUse">
<stop stop-color="#3F5BE8"/>
<stop offset="1" stop-color="#8B7AFF"/>
</linearGradient>
<clipPath id="clip0_269_635">
<rect width="28" height="28" fill="white"/>
</clipPath>
<clipPath id="clip1_269_635">
<rect width="28" height="28" fill="white"/>
</clipPath>
<clipPath id="clip2_269_635">
<rect width="28" height="28" fill="white"/>
</clipPath>
</defs>
</svg>
