<svg width="82" height="10" viewBox="0 0 82 10" fill="none" xmlns="http://www.w3.org/2000/svg">
<g opacity="0.5" clip-path="url(#clip0_11_2497)">
<g clip-path="url(#clip1_11_2497)">
<g clip-path="url(#clip2_11_2497)">
<path d="M5.73149 9.5003V8.52631H6.70548V6.57834H4.75751V7.55233H2.80954V2.6824H4.75751V3.65639H6.70548V1.70842H5.73149V0.734436H1.83556V1.70842H0.861572V8.52631H1.83556V9.5003H5.73149ZM10.2508 9.5003V6.57834H12.1988V9.5003H14.1467V5.60436H13.1727V4.63037H14.1467V1.70842H13.1727V0.734436H8.30281V9.5003H10.2508ZM12.1988 4.63037H10.2508V2.6824H12.1988V4.63037ZM19.64 9.5003V6.57834H20.614V5.60436H21.588V0.734436H19.64V4.63037H17.692V0.734436H15.7441V5.60436H16.718V6.57834H17.692V9.5003H19.64ZM25.1333 9.5003V6.57834H28.0552V5.60436H29.0292V1.70842H28.0552V0.734436H23.1853V9.5003H25.1333ZM27.0812 4.63037H25.1333V2.6824H27.0812V4.63037ZM34.5225 9.5003V2.6824H36.4704V0.734436H30.6265V2.6824H32.5745V9.5003H34.5225ZM42.9377 9.5003V8.52631H43.9117V1.70842H42.9377V0.734436H39.0418V1.70842H38.0678V8.52631H39.0418V9.5003H42.9377ZM41.9637 7.55233H40.0157V2.6824H41.9637V7.55233ZM47.457 9.5003V6.57834H50.3789V5.60436H51.3529V1.70842H50.3789V0.734436H45.509V9.5003H47.457ZM49.405 4.63037H47.457V2.6824H49.405V4.63037ZM57.8202 9.5003V8.52631H58.7942V0.734436H56.8462V7.55233H54.8982V0.734436H52.9503V8.52631H53.9242V9.5003H57.8202ZM62.3395 9.5003V6.57834H63.3135V7.55233H64.2874V9.5003H66.2354V0.734436H64.2874V3.65639H63.3135V2.6824H62.3395V0.734436H60.3915V9.5003H62.3395ZM69.7807 9.5003V6.57834H70.7547V7.55233H71.7287V9.5003H73.6766V6.57834H72.7027V5.60436H71.7287V4.63037H72.7027V3.65639H73.6766V0.734436H71.7287V2.6824H70.7547V3.65639H69.7807V0.734436H67.8327V9.5003H69.7807ZM80.1439 9.5003V8.52631H81.1179V4.63037H80.1439V3.65639H81.1179V1.70842H80.1439V0.734436H76.248V1.70842H75.274V4.63037H76.248V5.60436H79.1699V7.55233H77.222V6.57834H75.274V8.52631H76.248V9.5003H80.1439ZM79.1699 3.65639H77.222V2.6824H79.1699V3.65639Z" fill="white"/>
</g>
</g>
</g>
<defs>
<clipPath id="clip0_11_2497">
<rect width="81" height="9.59" fill="white" transform="translate(0.5 0.209991)"/>
</clipPath>
<clipPath id="clip1_11_2497">
<rect width="81" height="9.59" fill="white" transform="translate(0.5 0.209991)"/>
</clipPath>
<clipPath id="clip2_11_2497">
<rect width="80.9156" height="9.59" fill="white" transform="translate(0.542175 0.209991)"/>
</clipPath>
</defs>
</svg>
