<svg width="82" height="22" viewBox="0 0 82 22" fill="none" xmlns="http://www.w3.org/2000/svg">
<g opacity="0.5" clip-path="url(#clip0_11_2559)">
<g clip-path="url(#clip1_11_2559)">
<g clip-path="url(#clip2_11_2559)">
<path d="M33.1973 16.8527H36.0828L33.6948 12.0935C35.1376 11.5793 36.0164 10.3688 36.0164 8.77689C36.0164 6.68742 34.524 5.09546 32.2024 5.09546H27.5426V16.8527H30.1626V12.475H31.0913L33.1973 16.8527ZM30.1626 10.2196V7.36734H31.7049C32.7828 7.36734 33.3632 7.91456 33.3632 8.79354C33.3632 9.62257 32.7828 10.2196 31.7049 10.2196H30.1626ZM37.1302 14.5808C37.1302 15.891 38.1749 17.085 39.9825 17.085C41.0769 17.085 41.8729 16.6206 42.3041 15.924C42.3041 16.4879 42.3704 16.7864 42.3869 16.8527H44.6588C44.6423 16.7698 44.5593 16.2226 44.5593 15.5759V11.5463C44.5593 9.8548 43.5809 8.36237 40.9112 8.36237C38.4901 8.36237 37.3955 9.92115 37.2961 11.0985L39.485 11.5462C39.5347 10.9327 40.0157 10.3357 40.8945 10.3357C41.6905 10.3357 42.105 10.7502 42.105 11.2312C42.105 11.5131 41.9558 11.7287 41.5081 11.7949L39.5678 12.0935C38.2081 12.2924 37.1302 13.1216 37.1302 14.5808ZM40.5961 15.2608C39.8996 15.2608 39.6177 14.8463 39.6177 14.4151C39.6177 13.8347 40.0157 13.5859 40.5462 13.5031L42.105 13.2543V13.6191C42.105 14.896 41.3422 15.2608 40.5961 15.2608ZM51.9204 8.61101C51.7546 8.56131 51.5059 8.52813 51.2572 8.52813C50.5938 8.52813 49.549 8.79342 49.118 9.7221V8.61101H46.6802V16.8527H49.2009V13.2543C49.2009 11.6126 50.1129 11.0156 51.1245 11.0156C51.3732 11.0156 51.6385 11.0321 51.9204 11.0985V8.61101ZM55.97 16.8527V8.61101H53.4495V16.8527H55.97ZM53.2339 6.09049C53.2339 6.903 53.8972 7.5664 54.6931 7.5664C55.5223 7.5664 56.1856 6.903 56.1856 6.09049C56.1856 5.27787 55.5223 4.61459 54.6931 4.61459C53.8972 4.61459 53.2339 5.27787 53.2339 6.09049ZM60.6158 16.8527V15.924C60.9972 16.5543 61.843 17.0351 62.9374 17.0351C65.2425 17.0351 66.8675 15.2276 66.8675 12.7071C66.8675 10.2361 65.4249 8.41208 63.0369 8.41208C61.9092 8.41208 60.9972 8.87642 60.649 9.39046V4.8467H58.1781V16.8527H60.6158ZM64.347 12.7236C64.347 14.1 63.4681 14.7799 62.4897 14.7799C61.5112 14.7799 60.6158 14.0834 60.6158 12.7236C60.6158 11.3307 61.5112 10.684 62.4897 10.684C63.4681 10.684 64.347 11.3307 64.347 12.7236ZM71.0145 16.8527V4.8467H68.4938V16.8527H71.0145ZM75.1458 11.7452C75.1955 11.1316 75.7262 10.3522 76.7875 10.3522C77.9814 10.3522 78.4126 11.1151 78.4458 11.7452H75.1458ZM78.6282 13.8844C78.3959 14.5311 77.8819 14.9623 76.9699 14.9623C75.9915 14.9623 75.1458 14.299 75.096 13.3703H80.8337C80.8502 13.3205 80.8834 12.9392 80.8834 12.5909C80.8834 9.93768 79.3081 8.36237 76.7543 8.36237C74.6151 8.36237 72.6417 10.0537 72.6417 12.7071C72.6417 15.4763 74.6648 17.1015 76.9367 17.1015C79.0262 17.1015 80.3362 15.9075 80.7342 14.4814L78.6282 13.8844Z" fill="white"/>
<path d="M16.3554 1.18683C18.6125 1.18683 20.4422 3.01656 20.4422 5.27365V16.6873C20.4422 18.9444 18.6125 20.7741 16.3554 20.7741H4.94177C2.68468 20.7741 0.85495 18.9444 0.85495 16.6873V5.27365C0.85495 3.01656 2.68468 1.18683 4.94177 1.18683H16.3554ZM12.5437 7.45476H5.84946V14.4113H8.66709V12.0503H12.0093C12.5243 12.0503 12.8255 12.2544 12.8255 12.7596V14.4113H15.6431V12.6722C15.6431 11.7249 15.1087 11.1272 14.3703 10.9087C14.9873 10.7484 15.5362 10.2868 15.5362 9.35901C15.5362 7.81418 14.2246 7.45476 12.5437 7.45476ZM12.0579 9.49502C12.4271 9.49502 12.6505 9.54362 12.6505 9.8351C12.6505 10.1266 12.4271 10.1752 12.058 10.1752H8.66709V9.49502H12.0579Z" fill="white"/>
</g>
</g>
</g>
<defs>
<clipPath id="clip0_11_2559">
<rect width="81" height="20.13" fill="white" transform="translate(0.5 0.940002)"/>
</clipPath>
<clipPath id="clip1_11_2559">
<rect width="81" height="20.13" fill="white" transform="translate(0.5 0.940002)"/>
</clipPath>
<clipPath id="clip2_11_2559">
<rect width="81" height="20.1273" fill="white" transform="translate(0.5 0.941376)"/>
</clipPath>
</defs>
</svg>
