<svg width="28" height="28" viewBox="0 0 28 28" fill="none" xmlns="http://www.w3.org/2000/svg">
<path fill-rule="evenodd" clip-rule="evenodd" d="M25.8965 11.2064C24.6347 12.5568 22.5656 13.5841 20.4639 14C22.5662 14.4159 24.6347 15.4432 25.8965 16.7936L27.3291 18.326L25.2694 18.7244C23.4546 19.0744 21.1773 18.69 19.2319 17.7911C20.6885 19.3626 21.7577 21.4101 21.9852 23.2441L22.2436 25.3266L20.3431 24.437C18.669 23.6542 17.0531 22.0045 16.0078 20.1332C16.2615 22.2612 15.9238 24.5461 15.0295 26.1637L14.0145 28L12.9995 26.1637C12.1053 24.5461 11.7675 22.2612 12.0219 20.1332C10.9765 22.0045 9.36012 23.6542 7.68595 24.437L5.78545 25.326L6.04387 23.2435C6.27137 21.4101 7.34062 19.3626 8.7972 17.7905C6.85237 18.69 4.57445 19.0744 2.7597 18.7238L0.699951 18.3272L2.13262 16.7942C3.39495 15.4432 5.46345 14.4159 7.56579 14C5.46345 13.5841 3.39495 12.5568 2.13262 11.2064L0.699951 9.674L2.76028 9.27558C4.57445 8.92558 6.85237 9.31 8.79778 10.2089C7.34062 8.63742 6.27137 6.58992 6.04387 4.75592L5.78545 2.67342L7.68653 3.563C9.3607 4.34583 10.9765 5.9955 12.0219 7.86683C11.7675 5.73883 12.1053 3.45392 12.9995 1.83633L14.0145 0L15.0295 1.83633C15.9238 3.45392 16.2615 5.73883 16.0078 7.86683C17.0525 5.9955 18.669 4.34583 20.3431 3.563L22.2436 2.674L21.9858 4.7565C21.7583 6.58992 20.6885 8.63742 19.2325 10.2095C21.1773 9.31 23.4546 8.92558 25.2694 9.27617L27.3297 9.674L25.8965 11.2064ZM11.3755 16.6174C11.7163 16.966 12.1228 17.2436 12.5715 17.434C13.0202 17.6244 13.5023 17.7239 13.9897 17.7267C14.4772 17.7295 14.9604 17.6355 15.4113 17.4503C15.8622 17.265 16.2718 16.9921 16.6165 16.6475C16.9612 16.3028 17.2341 15.8931 17.4193 15.4422C17.6046 14.9913 17.6985 14.5082 17.6957 14.0207C17.6929 13.5332 17.5934 13.0512 17.403 12.6025C17.2126 12.1537 16.9351 11.7472 16.5865 11.4065C15.8928 10.7285 14.9597 10.3514 13.9897 10.357C13.0198 10.3625 12.0911 10.7503 11.4052 11.4362C10.7194 12.1221 10.3316 13.0507 10.326 14.0207C10.3204 14.9907 10.6976 15.9237 11.3755 16.6174Z" fill="url(#paint0_linear_269_664)"/>
<defs>
<linearGradient id="paint0_linear_269_664" x1="14.0145" y1="0" x2="14.0145" y2="28" gradientUnits="userSpaceOnUse">
<stop stop-color="#2043DA"/>
<stop offset="1" stop-color="#2B5FF3"/>
</linearGradient>
</defs>
</svg>
