<svg width="82" height="26" viewBox="0 0 82 26" fill="none" xmlns="http://www.w3.org/2000/svg">
<g opacity="0.5" clip-path="url(#clip0_11_2535)">
<g clip-path="url(#clip1_11_2535)">
<g clip-path="url(#clip2_11_2535)">
<path d="M41.8165 4.11538H43.0199V3.81454L42.7191 3.5137H41.2149L40.914 3.81454V6.22126L41.2149 6.5221H42.7191L43.0199 6.22126V5.92042H41.8165V5.31874H43.0199V4.71706H41.8165V4.11538Z" fill="white"/>
<path d="M42.8177 0.824524H41.1162V2.52594H42.8177V0.824524Z" fill="white"/>
<path d="M39.5101 3.5137V4.71706H38.6076V3.5137H38.0059L37.7051 3.81454V6.22126L38.0059 6.5221H38.6076V5.31874H39.5101V6.5221H40.1118L40.4126 6.22126V3.81454L40.1118 3.5137H39.5101Z" fill="white"/>
<path d="M34.7969 3.5137L34.4961 3.81454V4.11538H35.3986V6.22126L35.6995 6.5221H36.0003L36.3011 6.22126V4.11538H37.2037V3.81454L36.9028 3.5137H34.7969Z" fill="white"/>
<path d="M2.05559 7.55832L0.852234 8.76168V13.5751L2.05559 14.7785H6.86902V17.1852H4.46231V15.9818H0.852234V18.3885L2.05559 19.5919H9.27574L10.4791 18.3885V13.5751L9.27574 12.3717H4.46231V9.96503H6.86902V11.1684H10.4791V8.76168L9.27574 7.55832H2.05559Z" fill="white"/>
<path d="M34.5462 7.55832V19.5919H42.9698L44.1731 18.3885V8.76168L42.9698 7.55832H34.5462ZM38.1563 9.96503H40.563V17.1852H38.1563V9.96503Z" fill="white"/>
<path d="M45.3765 7.55832V19.5919H53.8L55.0033 18.3885V14.7785L53.8 13.5751L55.0033 12.3717V8.76168L53.8 7.55832H45.3765ZM48.9865 14.7785H51.3933V17.1852H48.9865V14.7785ZM48.9865 12.3717V9.96503H51.3933V12.3717H48.9865Z" fill="white"/>
<path d="M57.41 7.55832L56.2067 8.76168V18.3885L57.41 19.5919H64.6302L65.8335 18.3885V8.76168L64.6302 7.55832H57.41ZM59.8168 9.96503H62.2235V17.1852H59.8168V9.96503Z" fill="white"/>
<path d="M76.6622 13.5759L78.9348 11.3033L81.2075 13.5759L78.9348 15.8485L76.6622 13.5759Z" fill="white"/>
<path d="M14.0876 22.5329L16.3603 20.2602L18.6329 22.5329L16.3603 24.8055L14.0876 22.5329Z" fill="white"/>
<path d="M73.0537 7.55832V11.1684L71.8503 12.3717L70.647 11.1684V7.55832H68.2403L67.0369 8.76168V12.3717L68.2403 13.5751L67.0369 14.7785V18.3885L68.2403 19.5919H70.647V15.9818L71.8503 14.7785L73.0537 15.9818V19.5919H75.4604L76.6638 18.3885V14.7785L75.4604 13.5751L76.6638 12.3717V8.76168L75.4604 7.55832H73.0537Z" fill="white"/>
<path d="M29.7328 7.55832V11.1684L26.1227 7.55832H23.716L22.5127 8.76168V18.3885L23.716 19.5919H26.1227V12.3717L29.7328 15.9818V19.5919H32.1395L33.3429 18.3885V8.76168L32.1395 7.55832H29.7328Z" fill="white"/>
<path d="M20.106 7.58505H12.8858L11.6824 8.78841V18.4153L12.8858 19.6186H15.2925V14.8052H17.6992V19.6186H20.106L21.3093 18.4153V8.78841L20.106 7.58505ZM16.4959 12.8397L14.9583 11.3021L16.4959 9.76447L18.0335 11.3021L16.4959 12.8397Z" fill="white"/>
</g>
</g>
</g>
<defs>
<clipPath id="clip0_11_2535">
<rect width="81" height="24.97" fill="white" transform="translate(0.5 0.519989)"/>
</clipPath>
<clipPath id="clip1_11_2535">
<rect width="81" height="24.97" fill="white" transform="translate(0.5 0.519989)"/>
</clipPath>
<clipPath id="clip2_11_2535">
<rect width="81" height="24.9699" fill="white" transform="translate(0.5 0.52002)"/>
</clipPath>
</defs>
</svg>
