<svg width="82" height="18" viewBox="0 0 82 18" fill="none" xmlns="http://www.w3.org/2000/svg">
<g opacity="0.5" clip-path="url(#clip0_11_2503)">
<g clip-path="url(#clip1_11_2503)">
<g clip-path="url(#clip2_11_2503)">
<path d="M11.2125 3.98862H8.14394L4.13356 16.9512H0.757263L4.71541 3.98862H1.53462L2.45265 0.944366H12.1652L11.2125 3.98862Z" fill="white"/>
<path d="M13.5523 0.944366H23.3998L18.1828 16.9512H8.51736L13.5523 0.944366ZM12.8489 13.9179H15.8037L19.0016 3.98758H16.0106L12.8489 13.9179Z" fill="white"/>
<path d="M23.0073 16.9512H19.6532L24.1601 3.20247L27.3704 0.944366H34.3645L30.3174 12.8886H24.3551L23.0073 16.9512ZM27.9724 9.82213L29.9269 3.98862H27.3083L25.3719 9.82213H27.9724Z" fill="white"/>
<path d="M41.1647 16.9512H32.3645L34.0713 11.9696H37.4455L36.7695 13.9179H38.858L39.7501 11.3717L35.7677 7.35353L37.9658 0.944366H46.7194L45.038 5.70262H41.9529L42.5492 3.99586H40.3253L39.6012 6.08794L43.5898 10.0952L41.1647 16.9512Z" fill="white"/>
<path d="M49.3556 7.518H52.2664L54.6491 0.944366H58.0668L52.2012 16.9512H48.8472L51.1663 10.5529H48.2664L45.969 16.9512H42.6149L48.2984 0.944366H51.7161L49.3556 7.518Z" fill="white"/>
<path d="M59.5222 0.944366H69.3698L63.2932 16.9512H53.6292L59.5222 0.944366ZM58.1258 13.9179H61.0811L64.8111 3.98758H61.8212L58.1258 13.9179Z" fill="white"/>
<path d="M79.3869 3.98862H76.3163L71.272 16.9512H67.8957L72.8878 3.98862H69.707L70.8701 0.944366H80.5822L79.3869 3.98862Z" fill="white"/>
</g>
</g>
</g>
<defs>
<clipPath id="clip0_11_2503">
<rect width="81" height="16.92" fill="white" transform="translate(0.5 0.529999)"/>
</clipPath>
<clipPath id="clip1_11_2503">
<rect width="81" height="16.92" fill="white" transform="translate(0.5 0.529999)"/>
</clipPath>
<clipPath id="clip2_11_2503">
<rect width="80.9217" height="16.92" fill="white" transform="translate(0.539124 0.529999)"/>
</clipPath>
</defs>
</svg>
