<svg width="486" height="182" viewBox="0 0 486 182" fill="none" xmlns="http://www.w3.org/2000/svg">
<g clip-path="url(#clip0_269_305)">
<path d="M225.5 83.4999H222.167L222.842 80.7919C222.942 80.3893 223.189 80.0384 223.534 79.8079L224.8 78.9751M231.2 78.9667L232.467 79.7999C232.811 80.0303 233.058 80.3808 233.158 80.7831L233.833 83.4999H230.5M228 74.3331V76.8331" stroke="#344054" stroke-width="2" stroke-linecap="round" stroke-linejoin="round"/>
<path d="M230.5 83.5H225.5L224.475 76.8332C224.276 75.5399 224.384 74.2179 224.791 72.9743C225.198 71.7306 225.892 70.6003 226.817 69.6748L227.408 69.0832C227.486 69.0051 227.578 68.9431 227.68 68.9008C227.781 68.8585 227.89 68.8367 228 68.8367C228.11 68.8367 228.219 68.8585 228.32 68.9008C228.422 68.9431 228.514 69.0051 228.592 69.0832L229.184 69.6752C230.108 70.6006 230.802 71.7309 231.209 72.9745C231.616 74.2181 231.724 75.54 231.525 76.8332L230.5 83.5Z" stroke="#306CFE" stroke-width="2" stroke-linecap="round" stroke-linejoin="round"/>
<rect x="0.5" y="0.5" width="484" height="181" rx="14.5" fill="#060637" stroke="#2B2B54"/>
<path d="M-1 15H485" stroke="#2B2B54" stroke-opacity="0.61" stroke-width="0.4"/>
<path d="M-1 34H485" stroke="#2B2B54" stroke-opacity="0.61" stroke-width="0.4"/>
<path d="M-1 53H485" stroke="#2B2B54" stroke-opacity="0.61" stroke-width="0.4"/>
<path d="M-1 72H485" stroke="#2B2B54" stroke-opacity="0.61" stroke-width="0.4"/>
<path d="M-1 91H485" stroke="#2B2B54" stroke-opacity="0.61" stroke-width="0.4"/>
<path d="M-1 110H485" stroke="#2B2B54" stroke-opacity="0.61" stroke-width="0.4"/>
<path d="M-1 129H485" stroke="#2B2B54" stroke-opacity="0.61" stroke-width="0.4"/>
<path d="M-1 148H485" stroke="#2B2B54" stroke-opacity="0.61" stroke-width="0.4"/>
<path d="M-1 167H485" stroke="#2B2B54" stroke-opacity="0.61" stroke-width="0.4"/>
<g filter="url(#filter0_f_269_305)">
<circle cx="240" cy="91" r="85" fill="#080868"/>
</g>
<path d="M-10 119L34.3883 124L74.5 81L115.15 104.5H142.277L195.296 81L224.888 137L287.772 64L321.68 96L357.437 72H378.398L451.146 123L498 64" stroke="url(#paint0_linear_269_305)" stroke-width="2"/>
<g filter="url(#filter1_b_269_305)">
<circle cx="76" cy="82" r="18" fill="url(#paint1_radial_269_305)"/>
<circle cx="76" cy="82" r="17.75" stroke="url(#paint2_radial_269_305)" stroke-width="0.5"/>
<circle cx="76" cy="82" r="17.75" stroke="url(#paint3_linear_269_305)" stroke-width="0.5"/>
</g>
<path d="M79.625 87.125V85.875C79.625 85.212 79.3616 84.5761 78.8928 84.1072C78.4239 83.6384 77.788 83.375 77.125 83.375H72.125C71.462 83.375 70.8261 83.6384 70.3572 84.1072C69.8884 84.5761 69.625 85.212 69.625 85.875V87.125M83.375 87.125V85.875C83.3746 85.3211 83.1902 84.783 82.8509 84.3452C82.5115 83.9074 82.0363 83.5947 81.5 83.4563M79 75.9563C79.5378 76.0939 80.0144 76.4067 80.3548 76.8452C80.6952 77.2837 80.8799 77.823 80.8799 78.3781C80.8799 78.9332 80.6952 79.4725 80.3548 79.9111C80.0144 80.3496 79.5378 80.6623 79 80.8M77.125 78.375C77.125 79.7557 76.0057 80.875 74.625 80.875C73.2443 80.875 72.125 79.7557 72.125 78.375C72.125 76.9943 73.2443 75.875 74.625 75.875C76.0057 75.875 77.125 76.9943 77.125 78.375Z" stroke="white" stroke-linecap="round" stroke-linejoin="round"/>
<path d="M292.5 23.5V131.5" stroke="url(#paint4_linear_269_305)" stroke-width="1.5"/>
<g filter="url(#filter2_bf_269_305)">
<circle cx="293" cy="71" r="18" fill="url(#paint5_radial_269_305)"/>
<circle cx="293" cy="71" r="17.75" stroke="url(#paint6_radial_269_305)" stroke-width="0.5"/>
<circle cx="293" cy="71" r="17.75" stroke="url(#paint7_linear_269_305)" stroke-width="0.5"/>
</g>
<path d="M289.375 78.875H285.208L286.052 75.49C286.177 74.9867 286.486 74.5481 286.917 74.26L288.5 73.219M296.5 73.2085L298.083 74.25C298.514 74.538 298.823 74.9761 298.948 75.479L299.791 78.875H295.625M292.5 67.4165V70.5415" stroke="#C0C8D5" stroke-width="1.4" stroke-linecap="round" stroke-linejoin="round"/>
<path d="M295.625 78.875H289.375L288.094 70.5415C287.845 68.9249 287.98 67.2725 288.489 65.7179C288.997 64.1633 289.865 62.7504 291.021 61.5935L291.761 60.854C291.857 60.7564 291.973 60.6789 292.099 60.626C292.226 60.5731 292.363 60.5459 292.5 60.5459C292.638 60.5459 292.774 60.5731 292.901 60.626C293.028 60.6789 293.143 60.7564 293.24 60.854L293.98 61.594C295.136 62.7508 296.003 64.1637 296.512 65.7182C297.02 67.2726 297.155 68.925 296.907 70.5415L295.625 78.875Z" stroke="#306CFE" stroke-width="1.4" stroke-linecap="round" stroke-linejoin="round"/>
<rect x="206.05" y="8.05" width="158.9" height="16.9" rx="2.95" fill="#010123"/>
<rect x="206.05" y="8.05" width="158.9" height="16.9" rx="2.95" stroke="white" stroke-width="0.1"/>
<path d="M216.14 19L217.778 13.96H218.832L220.47 19H219.71L218.202 14.401H218.391L216.899 19H216.14ZM216.991 17.8625V17.1765H219.623V17.8625H216.991ZM221.007 19V13.855H221.739V19H221.007ZM224.306 19.105C223.931 19.105 223.601 19.0233 223.316 18.86C223.034 18.6943 222.813 18.4645 222.654 18.1705C222.498 17.8742 222.42 17.5312 222.42 17.1415C222.42 16.7285 222.497 16.3703 222.651 16.067C222.807 15.7637 223.024 15.5292 223.302 15.3635C223.58 15.1978 223.903 15.115 224.271 15.115C224.656 15.115 224.984 15.2048 225.255 15.3845C225.526 15.5618 225.727 15.815 225.86 16.144C225.996 16.473 226.049 16.8638 226.021 17.3165H225.29V17.0505C225.285 16.6118 225.201 16.2875 225.038 16.0775C224.877 15.8675 224.631 15.7625 224.299 15.7625C223.933 15.7625 223.658 15.878 223.473 16.109C223.289 16.34 223.197 16.6737 223.197 17.11C223.197 17.5253 223.289 17.8473 223.473 18.076C223.658 18.3023 223.924 18.4155 224.271 18.4155C224.5 18.4155 224.697 18.3642 224.863 18.2615C225.031 18.1565 225.162 18.0072 225.255 17.8135L225.972 18.041C225.825 18.3793 225.603 18.6418 225.304 18.8285C225.005 19.0128 224.673 19.105 224.306 19.105ZM222.959 17.3165V16.746H225.657V17.3165H222.959ZM226.647 19V15.22H227.298V16.137L227.207 16.018C227.253 15.8967 227.314 15.7858 227.389 15.6855C227.463 15.5828 227.55 15.4988 227.648 15.4335C227.743 15.3635 227.85 15.3098 227.966 15.2725C228.085 15.2328 228.207 15.2095 228.33 15.2025C228.454 15.1932 228.573 15.199 228.687 15.22V15.906C228.564 15.8733 228.426 15.864 228.274 15.878C228.125 15.892 227.987 15.9398 227.861 16.0215C227.742 16.0985 227.648 16.1918 227.578 16.3015C227.51 16.4112 227.461 16.5337 227.431 16.669C227.4 16.802 227.385 16.9432 227.385 17.0925V19H226.647ZM231.357 19C231.119 19.0467 230.885 19.0665 230.657 19.0595C230.428 19.0525 230.224 19.0082 230.044 18.9265C229.865 18.8448 229.729 18.7165 229.638 18.5415C229.557 18.3852 229.512 18.2265 229.505 18.0655C229.501 17.9022 229.498 17.7178 229.498 17.5125V14.17H230.233V17.4775C230.233 17.6292 230.234 17.761 230.237 17.873C230.241 17.985 230.266 18.0795 230.31 18.1565C230.394 18.3012 230.527 18.384 230.709 18.405C230.894 18.4237 231.109 18.4155 231.357 18.3805V19ZM228.774 15.808V15.22H231.357V15.808H228.774ZM231.924 17.0855V16.4975H234.024V17.0855H231.924Z" fill="white"/>
<path d="M238.745 19V17.0715C238.745 16.8615 238.725 16.669 238.685 16.494C238.645 16.3167 238.581 16.1627 238.493 16.032C238.406 15.899 238.293 15.7963 238.153 15.724C238.015 15.6517 237.847 15.6155 237.649 15.6155C237.467 15.6155 237.306 15.647 237.166 15.71C237.028 15.773 236.912 15.864 236.816 15.983C236.723 16.0997 236.652 16.242 236.603 16.41C236.554 16.578 236.529 16.7693 236.529 16.984L236.165 16.9035C236.165 16.5162 236.233 16.1907 236.368 15.927C236.503 15.6633 236.69 15.4638 236.928 15.3285C237.166 15.1932 237.439 15.1255 237.747 15.1255C237.973 15.1255 238.171 15.1605 238.339 15.2305C238.509 15.3005 238.652 15.395 238.769 15.514C238.888 15.633 238.984 15.7695 239.056 15.9235C239.128 16.0752 239.181 16.2373 239.214 16.41C239.246 16.5803 239.263 16.7507 239.263 16.921V19H238.745ZM236.011 19V15.22H236.477V16.151H236.529V19H236.011ZM241.59 19.105C241.221 19.105 240.901 19.0233 240.631 18.86C240.362 18.6967 240.154 18.4668 240.004 18.1705C239.855 17.8742 239.78 17.5265 239.78 17.1275C239.78 16.7145 239.854 16.3575 240.001 16.0565C240.148 15.7555 240.354 15.5233 240.62 15.36C240.889 15.1967 241.205 15.115 241.569 15.115C241.942 15.115 242.261 15.2013 242.524 15.374C242.788 15.5443 242.987 15.7893 243.123 16.109C243.258 16.4287 243.32 16.8102 243.308 17.2535H242.783V17.0715C242.774 16.5815 242.668 16.2117 242.465 15.962C242.264 15.7123 241.97 15.5875 241.583 15.5875C241.177 15.5875 240.865 15.7193 240.648 15.983C240.434 16.2467 240.326 16.6223 240.326 17.11C240.326 17.586 240.434 17.9558 240.648 18.2195C240.865 18.4808 241.172 18.6115 241.569 18.6115C241.839 18.6115 242.075 18.5497 242.276 18.426C242.479 18.3 242.639 18.1192 242.755 17.8835L243.235 18.069C243.085 18.398 242.865 18.6535 242.573 18.8355C242.284 19.0152 241.956 19.105 241.59 19.105ZM240.144 17.2535V16.823H243.032V17.2535H240.144ZM244.593 19L243.438 15.2165L243.953 15.22L244.849 18.1565L245.748 15.22H246.217L247.117 18.1565L248.02 15.22H248.531L247.376 19H246.928L245.983 15.99L245.041 19H244.593ZM251.048 19L249.893 15.2165L250.407 15.22L251.303 18.1565L252.203 15.22H252.672L253.571 18.1565L254.474 15.22H254.985L253.83 19H253.382L252.437 15.99L251.496 19H251.048ZM256.919 19.105C256.55 19.105 256.23 19.0233 255.96 18.86C255.691 18.6967 255.482 18.4668 255.333 18.1705C255.184 17.8742 255.109 17.5265 255.109 17.1275C255.109 16.7145 255.183 16.3575 255.33 16.0565C255.477 15.7555 255.683 15.5233 255.949 15.36C256.217 15.1967 256.534 15.115 256.898 15.115C257.271 15.115 257.589 15.2013 257.853 15.374C258.117 15.5443 258.316 15.7893 258.452 16.109C258.587 16.4287 258.649 16.8102 258.637 17.2535H258.112V17.0715C258.103 16.5815 257.997 16.2117 257.794 15.962C257.593 15.7123 257.299 15.5875 256.912 15.5875C256.506 15.5875 256.194 15.7193 255.977 15.983C255.762 16.2467 255.655 16.6223 255.655 17.11C255.655 17.586 255.762 17.9558 255.977 18.2195C256.194 18.4808 256.501 18.6115 256.898 18.6115C257.168 18.6115 257.404 18.5497 257.605 18.426C257.808 18.3 257.967 18.1192 258.084 17.8835L258.564 18.069C258.414 18.398 258.194 18.6535 257.902 18.8355C257.613 19.0152 257.285 19.105 256.919 19.105ZM255.473 17.2535V16.823H258.361V17.2535H255.473ZM260.951 19.105C260.604 19.105 260.31 19.0175 260.069 18.8425C259.829 18.6652 259.647 18.426 259.523 18.125C259.4 17.8217 259.338 17.4822 259.338 17.1065C259.338 16.7238 259.4 16.3832 259.523 16.0845C259.649 15.7835 259.834 15.5467 260.076 15.374C260.319 15.2013 260.618 15.115 260.972 15.115C261.318 15.115 261.614 15.2025 261.861 15.3775C262.109 15.5525 262.298 15.7905 262.428 16.0915C262.561 16.3925 262.628 16.7308 262.628 17.1065C262.628 17.4845 262.561 17.824 262.428 18.125C262.295 18.426 262.104 18.6652 261.854 18.8425C261.605 19.0175 261.304 19.105 260.951 19.105ZM259.25 19V13.96H259.768V16.1545H259.712V19H259.25ZM260.899 18.6255C261.162 18.6255 261.382 18.559 261.557 18.426C261.732 18.293 261.862 18.1122 261.949 17.8835C262.037 17.6525 262.082 17.3935 262.082 17.1065C262.082 16.8218 262.039 16.5652 261.952 16.3365C261.866 16.1078 261.734 15.927 261.557 15.794C261.382 15.661 261.159 15.5945 260.888 15.5945C260.625 15.5945 260.405 15.6587 260.23 15.787C260.058 15.9153 259.928 16.0938 259.842 16.3225C259.755 16.5488 259.712 16.8102 259.712 17.1065C259.712 17.3982 259.755 17.6595 259.842 17.8905C259.928 18.1192 260.059 18.2988 260.234 18.4295C260.409 18.5602 260.63 18.6255 260.899 18.6255ZM264.591 19.1015C264.341 19.1015 264.111 19.0572 263.901 18.9685C263.691 18.8798 263.51 18.7538 263.359 18.5905C263.207 18.4248 263.096 18.2277 263.026 17.999L263.516 17.852C263.6 18.1017 263.738 18.2907 263.929 18.419C264.123 18.5473 264.341 18.6092 264.584 18.6045C264.808 18.5998 265 18.5497 265.161 18.454C265.325 18.3583 265.449 18.2253 265.536 18.055C265.622 17.8847 265.665 17.6875 265.665 17.4635C265.665 17.1205 265.565 16.8452 265.364 16.6375C265.166 16.4275 264.903 16.3225 264.577 16.3225C264.486 16.3225 264.39 16.3353 264.29 16.361C264.189 16.3843 264.096 16.4182 264.01 16.4625L263.751 16.053L265.711 14.2435L265.795 14.4535H263.226V13.96H266.138V14.4605L264.43 16.0915L264.423 15.8885C264.773 15.8442 265.081 15.8838 265.347 16.0075C265.613 16.1312 265.82 16.3202 265.97 16.5745C266.121 16.8265 266.197 17.1228 266.197 17.4635C266.197 17.7855 266.127 18.0702 265.987 18.3175C265.85 18.5625 265.659 18.755 265.417 18.895C265.174 19.0327 264.899 19.1015 264.591 19.1015ZM269.884 19.105C269.537 19.105 269.243 19.0175 269.002 18.8425C268.762 18.6652 268.58 18.426 268.456 18.125C268.333 17.8217 268.271 17.4822 268.271 17.1065C268.271 16.7238 268.333 16.3832 268.456 16.0845C268.582 15.7835 268.767 15.5467 269.009 15.374C269.252 15.2013 269.551 15.115 269.905 15.115C270.251 15.115 270.547 15.2025 270.794 15.3775C271.042 15.5525 271.231 15.7905 271.361 16.0915C271.494 16.3925 271.561 16.7308 271.561 17.1065C271.561 17.4845 271.494 17.824 271.361 18.125C271.228 18.426 271.037 18.6652 270.787 18.8425C270.538 19.0175 270.237 19.105 269.884 19.105ZM268.183 20.68V15.22H268.645V18.0655H268.701V20.68H268.183ZM269.832 18.6255C270.096 18.6255 270.315 18.559 270.49 18.426C270.665 18.293 270.796 18.1122 270.882 17.8835C270.971 17.6525 271.015 17.3935 271.015 17.1065C271.015 16.8218 270.972 16.5652 270.885 16.3365C270.799 16.1078 270.667 15.927 270.49 15.794C270.315 15.661 270.092 15.5945 269.821 15.5945C269.558 15.5945 269.338 15.6587 269.163 15.787C268.991 15.9153 268.861 16.0938 268.775 16.3225C268.689 16.5488 268.645 16.8102 268.645 17.1065C268.645 17.3982 268.689 17.6595 268.775 17.8905C268.861 18.1192 268.992 18.2988 269.167 18.4295C269.342 18.5602 269.564 18.6255 269.832 18.6255ZM272.169 19V15.22H272.631V16.13L272.54 16.011C272.582 15.899 272.637 15.7963 272.705 15.703C272.773 15.6073 272.846 15.5292 272.925 15.4685C273.023 15.3822 273.138 15.3168 273.268 15.2725C273.399 15.2258 273.531 15.199 273.664 15.192C273.797 15.1827 273.918 15.192 274.028 15.22V15.703C273.89 15.668 273.74 15.6598 273.576 15.6785C273.413 15.6972 273.263 15.7625 273.125 15.8745C272.999 15.9725 272.904 16.0903 272.841 16.228C272.778 16.3633 272.736 16.508 272.715 16.662C272.694 16.8137 272.684 16.9642 272.684 17.1135V19H272.169ZM276.042 19.105C275.666 19.105 275.346 19.0198 275.08 18.8495C274.814 18.6792 274.609 18.4435 274.467 18.1425C274.325 17.8415 274.254 17.4962 274.254 17.1065C274.254 16.7098 274.326 16.3622 274.471 16.0635C274.615 15.7648 274.821 15.5327 275.087 15.367C275.355 15.199 275.673 15.115 276.042 15.115C276.42 15.115 276.742 15.2002 277.008 15.3705C277.276 15.5385 277.481 15.773 277.621 16.074C277.763 16.3727 277.834 16.7168 277.834 17.1065C277.834 17.5032 277.763 17.852 277.621 18.153C277.478 18.4517 277.273 18.685 277.005 18.853C276.736 19.021 276.415 19.105 276.042 19.105ZM276.042 18.6115C276.462 18.6115 276.775 18.4727 276.98 18.195C277.185 17.915 277.288 17.5522 277.288 17.1065C277.288 16.6492 277.184 16.2852 276.977 16.0145C276.771 15.7438 276.46 15.6085 276.042 15.6085C275.76 15.6085 275.526 15.6727 275.342 15.801C275.16 15.927 275.024 16.1032 274.933 16.3295C274.844 16.5535 274.8 16.8125 274.8 17.1065C274.8 17.5615 274.905 17.9267 275.115 18.202C275.325 18.475 275.634 18.6115 276.042 18.6115ZM279.913 19.105C279.56 19.105 279.259 19.0175 279.01 18.8425C278.76 18.6652 278.569 18.426 278.436 18.125C278.303 17.824 278.236 17.4845 278.236 17.1065C278.236 16.7308 278.301 16.3925 278.432 16.0915C278.565 15.7905 278.755 15.5525 279.003 15.3775C279.25 15.2025 279.546 15.115 279.892 15.115C280.246 15.115 280.545 15.2013 280.788 15.374C281.03 15.5467 281.213 15.7835 281.337 16.0845C281.463 16.3832 281.526 16.7238 281.526 17.1065C281.526 17.4822 281.464 17.8217 281.341 18.125C281.217 18.426 281.035 18.6652 280.795 18.8425C280.554 19.0175 280.26 19.105 279.913 19.105ZM279.965 18.6255C280.233 18.6255 280.455 18.5602 280.63 18.4295C280.805 18.2988 280.936 18.1192 281.022 17.8905C281.108 17.6595 281.152 17.3982 281.152 17.1065C281.152 16.8102 281.108 16.5488 281.022 16.3225C280.936 16.0938 280.805 15.9153 280.63 15.787C280.457 15.6587 280.239 15.5945 279.976 15.5945C279.705 15.5945 279.481 15.661 279.304 15.794C279.126 15.927 278.994 16.1078 278.908 16.3365C278.824 16.5652 278.782 16.8218 278.782 17.1065C278.782 17.3935 278.825 17.6525 278.912 17.8835C279 18.1122 279.132 18.293 279.307 18.426C279.482 18.559 279.701 18.6255 279.965 18.6255ZM281.152 19V16.1545H281.096V13.96H281.614V19H281.152ZM283.881 19.0945C283.655 19.0945 283.456 19.0595 283.286 18.9895C283.118 18.9195 282.975 18.825 282.856 18.706C282.739 18.587 282.644 18.4517 282.572 18.3C282.5 18.146 282.447 17.9838 282.415 17.8135C282.382 17.6408 282.366 17.4693 282.366 17.299V15.22H282.884V17.1485C282.884 17.3562 282.903 17.5487 282.943 17.726C282.983 17.9033 283.046 18.0585 283.132 18.1915C283.221 18.3222 283.334 18.4237 283.472 18.496C283.612 18.5683 283.781 18.6045 283.979 18.6045C284.161 18.6045 284.321 18.573 284.459 18.51C284.599 18.447 284.715 18.3572 284.809 18.2405C284.904 18.1215 284.977 17.978 285.026 17.81C285.075 17.6397 285.099 17.4483 285.099 17.236L285.463 17.3165C285.463 17.7038 285.395 18.0293 285.26 18.293C285.125 18.5567 284.938 18.7562 284.7 18.8915C284.462 19.0268 284.189 19.0945 283.881 19.0945ZM285.152 19V18.069H285.099V15.22H285.614V19H285.152ZM288 19.105C287.619 19.105 287.297 19.0198 287.034 18.8495C286.77 18.6792 286.569 18.4447 286.432 18.146C286.296 17.845 286.226 17.4997 286.222 17.11C286.226 16.7133 286.299 16.3657 286.439 16.067C286.579 15.766 286.781 15.5327 287.044 15.367C287.308 15.199 287.628 15.115 288.003 15.115C288.386 15.115 288.718 15.2083 289.001 15.395C289.285 15.5817 289.48 15.8372 289.585 16.1615L289.081 16.3225C288.993 16.0962 288.851 15.9212 288.658 15.7975C288.466 15.6715 288.247 15.6085 288 15.6085C287.722 15.6085 287.492 15.6727 287.31 15.801C287.128 15.927 286.993 16.1032 286.904 16.3295C286.816 16.5558 286.77 16.816 286.768 17.11C286.772 17.5627 286.877 17.9267 287.083 18.202C287.288 18.475 287.594 18.6115 288 18.6115C288.256 18.6115 288.475 18.5532 288.654 18.4365C288.836 18.3175 288.974 18.1448 289.067 17.9185L289.585 18.0725C289.445 18.4085 289.24 18.6652 288.969 18.8425C288.699 19.0175 288.375 19.105 288 19.105ZM292.206 19C291.993 19.0443 291.783 19.0618 291.576 19.0525C291.37 19.0432 291.186 18.9988 291.023 18.9195C290.862 18.8402 290.739 18.7165 290.655 18.5485C290.588 18.4085 290.55 18.2673 290.543 18.125C290.539 17.9803 290.536 17.8158 290.536 17.6315V14.17H291.047V17.6105C291.047 17.7692 291.048 17.9022 291.051 18.0095C291.055 18.1145 291.08 18.2078 291.124 18.2895C291.208 18.4458 291.341 18.5392 291.523 18.5695C291.708 18.5998 291.935 18.5928 292.206 18.5485V19ZM289.728 15.661V15.22H292.206V15.661H289.728ZM294.102 19V13.855H294.616V19H294.102ZM296.587 19.105C296.302 19.105 296.063 19.0537 295.87 18.951C295.678 18.8483 295.535 18.7118 295.439 18.5415C295.343 18.3712 295.296 18.1857 295.296 17.985C295.296 17.7797 295.336 17.6047 295.418 17.46C295.502 17.313 295.615 17.1928 295.758 17.0995C295.902 17.0062 296.069 16.935 296.258 16.886C296.449 16.8393 296.661 16.7985 296.892 16.7635C297.125 16.7262 297.352 16.6947 297.574 16.669C297.798 16.641 297.994 16.6142 298.162 16.5885L297.98 16.7005C297.987 16.3272 297.915 16.0507 297.763 15.871C297.611 15.6913 297.348 15.6015 296.972 15.6015C296.713 15.6015 296.494 15.6598 296.314 15.7765C296.137 15.8932 296.012 16.0775 295.94 16.3295L295.439 16.1825C295.525 15.8442 295.699 15.5817 295.961 15.395C296.222 15.2083 296.561 15.115 296.979 15.115C297.324 15.115 297.617 15.1803 297.858 15.311C298.1 15.4393 298.272 15.626 298.372 15.871C298.419 15.9807 298.449 16.1032 298.463 16.2385C298.477 16.3738 298.484 16.5115 298.484 16.6515V19H298.026V18.0515L298.159 18.1075C298.03 18.4318 297.831 18.6792 297.56 18.8495C297.289 19.0198 296.965 19.105 296.587 19.105ZM296.647 18.6605C296.887 18.6605 297.097 18.6173 297.277 18.531C297.456 18.4447 297.601 18.3268 297.711 18.1775C297.82 18.0258 297.891 17.8555 297.924 17.6665C297.952 17.5452 297.967 17.4122 297.97 17.2675C297.972 17.1205 297.973 17.0108 297.973 16.9385L298.169 17.04C297.994 17.0633 297.804 17.0867 297.599 17.11C297.396 17.1333 297.195 17.1602 296.997 17.1905C296.801 17.2208 296.623 17.257 296.465 17.299C296.357 17.3293 296.253 17.3725 296.153 17.4285C296.053 17.4822 295.97 17.5545 295.905 17.6455C295.842 17.7365 295.81 17.8497 295.81 17.985C295.81 18.0947 295.837 18.2008 295.891 18.3035C295.947 18.4062 296.035 18.4913 296.157 18.559C296.28 18.6267 296.444 18.6605 296.647 18.6605ZM300.681 19.0945C300.454 19.0945 300.256 19.0595 300.086 18.9895C299.918 18.9195 299.774 18.825 299.655 18.706C299.539 18.587 299.444 18.4517 299.372 18.3C299.299 18.146 299.247 17.9838 299.214 17.8135C299.182 17.6408 299.165 17.4693 299.165 17.299V15.22H299.683V17.1485C299.683 17.3562 299.703 17.5487 299.743 17.726C299.782 17.9033 299.845 18.0585 299.932 18.1915C300.02 18.3222 300.134 18.4237 300.271 18.496C300.411 18.5683 300.58 18.6045 300.779 18.6045C300.961 18.6045 301.121 18.573 301.258 18.51C301.398 18.447 301.515 18.3572 301.608 18.2405C301.704 18.1215 301.776 17.978 301.825 17.81C301.874 17.6397 301.899 17.4483 301.899 17.236L302.263 17.3165C302.263 17.7038 302.195 18.0293 302.06 18.293C301.924 18.5567 301.738 18.7562 301.5 18.8915C301.262 19.0268 300.989 19.0945 300.681 19.0945ZM301.951 19V18.069H301.899V15.22H302.413V19H301.951ZM305.962 19V17.0715C305.962 16.8615 305.942 16.669 305.902 16.494C305.862 16.3167 305.798 16.1627 305.71 16.032C305.623 15.899 305.51 15.7963 305.37 15.724C305.232 15.6517 305.064 15.6155 304.866 15.6155C304.684 15.6155 304.523 15.647 304.383 15.71C304.245 15.773 304.129 15.864 304.033 15.983C303.94 16.0997 303.869 16.242 303.82 16.41C303.771 16.578 303.746 16.7693 303.746 16.984L303.382 16.9035C303.382 16.5162 303.45 16.1907 303.585 15.927C303.72 15.6633 303.907 15.4638 304.145 15.3285C304.383 15.1932 304.656 15.1255 304.964 15.1255C305.19 15.1255 305.388 15.1605 305.556 15.2305C305.726 15.3005 305.869 15.395 305.986 15.514C306.105 15.633 306.201 15.7695 306.273 15.9235C306.345 16.0752 306.398 16.2373 306.431 16.41C306.463 16.5803 306.48 16.7507 306.48 16.921V19H305.962ZM303.228 19V15.22H303.694V16.151H303.746V19H303.228ZM308.775 19.105C308.395 19.105 308.073 19.0198 307.809 18.8495C307.546 18.6792 307.345 18.4447 307.207 18.146C307.072 17.845 307.002 17.4997 306.997 17.11C307.002 16.7133 307.074 16.3657 307.214 16.067C307.354 15.766 307.556 15.5327 307.82 15.367C308.083 15.199 308.403 15.115 308.779 15.115C309.161 15.115 309.494 15.2083 309.776 15.395C310.061 15.5817 310.256 15.8372 310.361 16.1615L309.857 16.3225C309.768 16.0962 309.627 15.9212 309.433 15.7975C309.242 15.6715 309.023 15.6085 308.775 15.6085C308.498 15.6085 308.268 15.6727 308.086 15.801C307.904 15.927 307.768 16.1032 307.68 16.3295C307.591 16.5558 307.546 16.816 307.543 17.11C307.548 17.5627 307.653 17.9267 307.858 18.202C308.064 18.475 308.369 18.6115 308.775 18.6115C309.032 18.6115 309.25 18.5532 309.43 18.4365C309.612 18.3175 309.749 18.1448 309.843 17.9185L310.361 18.0725C310.221 18.4085 310.015 18.6652 309.745 18.8425C309.474 19.0175 309.151 19.105 308.775 19.105ZM313.653 19V17.0715C313.653 16.8615 313.633 16.669 313.594 16.494C313.554 16.3167 313.49 16.1627 313.401 16.032C313.315 15.899 313.202 15.7963 313.062 15.724C312.924 15.6517 312.756 15.6155 312.558 15.6155C312.376 15.6155 312.215 15.647 312.075 15.71C311.937 15.773 311.82 15.864 311.725 15.983C311.631 16.0997 311.56 16.242 311.511 16.41C311.462 16.578 311.438 16.7693 311.438 16.984L311.074 16.9035C311.074 16.5162 311.141 16.1907 311.277 15.927C311.412 15.6633 311.599 15.4638 311.837 15.3285C312.075 15.1932 312.348 15.1255 312.656 15.1255C312.882 15.1255 313.079 15.1605 313.247 15.2305C313.418 15.3005 313.561 15.395 313.678 15.514C313.797 15.633 313.892 15.7695 313.965 15.9235C314.037 16.0752 314.09 16.2373 314.122 16.41C314.155 16.5803 314.171 16.7507 314.171 16.921V19H313.653ZM310.92 19V13.96H311.385V16.8055H311.438V19H310.92ZM317.739 19.105C317.364 19.105 317.043 19.0198 316.777 18.8495C316.511 18.6792 316.307 18.4435 316.164 18.1425C316.022 17.8415 315.951 17.4962 315.951 17.1065C315.951 16.7098 316.023 16.3622 316.168 16.0635C316.313 15.7648 316.518 15.5327 316.784 15.367C317.052 15.199 317.371 15.115 317.739 15.115C318.117 15.115 318.439 15.2002 318.705 15.3705C318.974 15.5385 319.178 15.773 319.318 16.074C319.46 16.3727 319.531 16.7168 319.531 17.1065C319.531 17.5032 319.46 17.852 319.318 18.153C319.176 18.4517 318.97 18.685 318.702 18.853C318.434 19.021 318.113 19.105 317.739 19.105ZM317.739 18.6115C318.159 18.6115 318.472 18.4727 318.677 18.195C318.883 17.915 318.985 17.5522 318.985 17.1065C318.985 16.6492 318.882 16.2852 318.674 16.0145C318.469 15.7438 318.157 15.6085 317.739 15.6085C317.457 15.6085 317.224 15.6727 317.039 15.801C316.857 15.927 316.721 16.1032 316.63 16.3295C316.541 16.5535 316.497 16.8125 316.497 17.1065C316.497 17.5615 316.602 17.9267 316.812 18.202C317.022 18.475 317.331 18.6115 317.739 18.6115ZM322.873 19V17.0715C322.873 16.8615 322.854 16.669 322.814 16.494C322.774 16.3167 322.71 16.1627 322.621 16.032C322.535 15.899 322.422 15.7963 322.282 15.724C322.144 15.6517 321.976 15.6155 321.778 15.6155C321.596 15.6155 321.435 15.647 321.295 15.71C321.157 15.773 321.041 15.864 320.945 15.983C320.852 16.0997 320.78 16.242 320.731 16.41C320.682 16.578 320.658 16.7693 320.658 16.984L320.294 16.9035C320.294 16.5162 320.362 16.1907 320.497 15.927C320.632 15.6633 320.819 15.4638 321.057 15.3285C321.295 15.1932 321.568 15.1255 321.876 15.1255C322.102 15.1255 322.299 15.1605 322.467 15.2305C322.638 15.3005 322.781 15.395 322.898 15.514C323.017 15.633 323.113 15.7695 323.185 15.9235C323.257 16.0752 323.31 16.2373 323.342 16.41C323.375 16.5803 323.391 16.7507 323.391 16.921V19H322.873ZM320.14 19V15.22H320.605V16.151H320.658V19H320.14ZM326.949 19.105C326.569 19.105 326.247 19.0198 325.983 18.8495C325.719 18.6792 325.519 18.4447 325.381 18.146C325.246 17.845 325.176 17.4997 325.171 17.11C325.176 16.7133 325.248 16.3657 325.388 16.067C325.528 15.766 325.73 15.5327 325.994 15.367C326.257 15.199 326.577 15.115 326.953 15.115C327.335 15.115 327.668 15.2083 327.95 15.395C328.235 15.5817 328.43 15.8372 328.535 16.1615L328.031 16.3225C327.942 16.0962 327.801 15.9212 327.607 15.7975C327.416 15.6715 327.196 15.6085 326.949 15.6085C326.671 15.6085 326.442 15.6727 326.26 15.801C326.078 15.927 325.942 16.1032 325.854 16.3295C325.765 16.5558 325.719 16.816 325.717 17.11C325.722 17.5627 325.827 17.9267 326.032 18.202C326.237 18.475 326.543 18.6115 326.949 18.6115C327.206 18.6115 327.424 18.5532 327.604 18.4365C327.786 18.3175 327.923 18.1448 328.017 17.9185L328.535 18.0725C328.395 18.4085 328.189 18.6652 327.919 18.8425C327.648 19.0175 327.325 19.105 326.949 19.105ZM330.573 19.105C330.197 19.105 329.876 19.0198 329.61 18.8495C329.344 18.6792 329.14 18.4435 328.998 18.1425C328.856 17.8415 328.784 17.4962 328.784 17.1065C328.784 16.7098 328.857 16.3622 329.001 16.0635C329.146 15.7648 329.351 15.5327 329.617 15.367C329.886 15.199 330.204 15.115 330.573 15.115C330.951 15.115 331.273 15.2002 331.539 15.3705C331.807 15.5385 332.011 15.773 332.151 16.074C332.294 16.3727 332.365 16.7168 332.365 17.1065C332.365 17.5032 332.294 17.852 332.151 18.153C332.009 18.4517 331.804 18.685 331.535 18.853C331.267 19.021 330.946 19.105 330.573 19.105ZM330.573 18.6115C330.993 18.6115 331.306 18.4727 331.511 18.195C331.716 17.915 331.819 17.5522 331.819 17.1065C331.819 16.6492 331.715 16.2852 331.507 16.0145C331.302 15.7438 330.991 15.6085 330.573 15.6085C330.291 15.6085 330.057 15.6727 329.873 15.801C329.691 15.927 329.554 16.1032 329.463 16.3295C329.375 16.5535 329.33 16.8125 329.33 17.1065C329.33 17.5615 329.435 17.9267 329.645 18.202C329.855 18.475 330.165 18.6115 330.573 18.6115ZM333.047 14.5025V13.925H333.562V14.5025H333.047ZM333.047 19V15.22H333.562V19H333.047ZM337.181 19V17.0715C337.181 16.8615 337.161 16.669 337.121 16.494C337.082 16.3167 337.018 16.1627 336.929 16.032C336.843 15.899 336.729 15.7963 336.589 15.724C336.452 15.6517 336.284 15.6155 336.085 15.6155C335.903 15.6155 335.742 15.647 335.602 15.71C335.465 15.773 335.348 15.864 335.252 15.983C335.159 16.0997 335.088 16.242 335.039 16.41C334.99 16.578 334.965 16.7693 334.965 16.984L334.601 16.9035C334.601 16.5162 334.669 16.1907 334.804 15.927C334.94 15.6633 335.126 15.4638 335.364 15.3285C335.602 15.1932 335.875 15.1255 336.183 15.1255C336.41 15.1255 336.607 15.1605 336.775 15.2305C336.945 15.3005 337.089 15.395 337.205 15.514C337.324 15.633 337.42 15.7695 337.492 15.9235C337.565 16.0752 337.617 16.2373 337.65 16.41C337.683 16.5803 337.699 16.7507 337.699 16.921V19H337.181ZM334.447 19V15.22H334.913V16.151H334.965V19H334.447ZM341.386 19.105C341.038 19.105 340.744 19.0175 340.504 18.8425C340.264 18.6652 340.082 18.426 339.958 18.125C339.834 17.8217 339.772 17.4822 339.772 17.1065C339.772 16.7238 339.834 16.3832 339.958 16.0845C340.084 15.7835 340.268 15.5467 340.511 15.374C340.754 15.2013 341.052 15.115 341.407 15.115C341.752 15.115 342.049 15.2025 342.296 15.3775C342.543 15.5525 342.732 15.7905 342.863 16.0915C342.996 16.3925 343.062 16.7308 343.062 17.1065C343.062 17.4845 342.996 17.824 342.863 18.125C342.73 18.426 342.539 18.6652 342.289 18.8425C342.039 19.0175 341.738 19.105 341.386 19.105ZM339.685 19V13.96H340.203V16.1545H340.147V19H339.685ZM341.333 18.6255C341.597 18.6255 341.816 18.559 341.991 18.426C342.166 18.293 342.297 18.1122 342.383 17.8835C342.472 17.6525 342.516 17.3935 342.516 17.1065C342.516 16.8218 342.473 16.5652 342.387 16.3365C342.301 16.1078 342.169 15.927 341.991 15.794C341.816 15.661 341.594 15.5945 341.323 15.5945C341.059 15.5945 340.84 15.6587 340.665 15.787C340.492 15.9153 340.363 16.0938 340.276 16.3225C340.19 16.5488 340.147 16.8102 340.147 17.1065C340.147 17.3982 340.19 17.6595 340.276 17.8905C340.363 18.1192 340.493 18.2988 340.668 18.4295C340.843 18.5602 341.065 18.6255 341.333 18.6255ZM344.753 19.105C344.468 19.105 344.229 19.0537 344.035 18.951C343.844 18.8483 343.7 18.7118 343.605 18.5415C343.509 18.3712 343.461 18.1857 343.461 17.985C343.461 17.7797 343.502 17.6047 343.584 17.46C343.668 17.313 343.781 17.1928 343.923 17.0995C344.068 17.0062 344.235 16.935 344.424 16.886C344.615 16.8393 344.826 16.7985 345.057 16.7635C345.29 16.7262 345.518 16.6947 345.74 16.669C345.964 16.641 346.16 16.6142 346.328 16.5885L346.146 16.7005C346.153 16.3272 346.08 16.0507 345.929 15.871C345.777 15.6913 345.513 15.6015 345.138 15.6015C344.879 15.6015 344.659 15.6598 344.48 15.7765C344.302 15.8932 344.177 16.0775 344.105 16.3295L343.605 16.1825C343.691 15.8442 343.865 15.5817 344.126 15.395C344.387 15.2083 344.727 15.115 345.145 15.115C345.49 15.115 345.783 15.1803 346.023 15.311C346.266 15.4393 346.437 15.626 346.538 15.871C346.584 15.9807 346.615 16.1032 346.629 16.2385C346.643 16.3738 346.65 16.5115 346.65 16.6515V19H346.191V18.0515L346.324 18.1075C346.196 18.4318 345.996 18.6792 345.726 18.8495C345.455 19.0198 345.131 19.105 344.753 19.105ZM344.812 18.6605C345.052 18.6605 345.262 18.6173 345.442 18.531C345.622 18.4447 345.766 18.3268 345.876 18.1775C345.986 18.0258 346.057 17.8555 346.09 17.6665C346.118 17.5452 346.133 17.4122 346.135 17.2675C346.137 17.1205 346.139 17.0108 346.139 16.9385L346.335 17.04C346.16 17.0633 345.969 17.0867 345.764 17.11C345.561 17.1333 345.36 17.1602 345.162 17.1905C344.966 17.2208 344.789 17.257 344.63 17.299C344.523 17.3293 344.419 17.3725 344.319 17.4285C344.218 17.4822 344.135 17.5545 344.07 17.6455C344.007 17.7365 343.976 17.8497 343.976 17.985C343.976 18.0947 344.002 18.2008 344.056 18.3035C344.112 18.4062 344.201 18.4913 344.322 18.559C344.446 18.6267 344.609 18.6605 344.812 18.6605ZM348.811 19.1015C348.368 19.1015 348.003 19.0058 347.716 18.8145C347.431 18.6232 347.256 18.3572 347.191 18.0165L347.716 17.929C347.772 18.1437 347.899 18.3152 348.097 18.4435C348.298 18.5695 348.545 18.6325 348.839 18.6325C349.126 18.6325 349.353 18.573 349.518 18.454C349.684 18.3327 349.767 18.1682 349.767 17.9605C349.767 17.8438 349.74 17.7493 349.686 17.677C349.635 17.6023 349.529 17.5335 349.368 17.4705C349.207 17.4075 348.966 17.3328 348.647 17.2465C348.304 17.1532 348.035 17.0598 347.842 16.9665C347.648 16.8732 347.51 16.7658 347.429 16.6445C347.347 16.5208 347.306 16.3703 347.306 16.193C347.306 15.9783 347.367 15.7905 347.488 15.6295C347.61 15.4662 347.778 15.3402 347.992 15.2515C348.207 15.1605 348.457 15.115 348.741 15.115C349.026 15.115 349.28 15.1617 349.504 15.255C349.731 15.346 349.913 15.4743 350.05 15.64C350.188 15.8057 350.27 15.9982 350.295 16.2175L349.77 16.312C349.735 16.0903 349.624 15.9153 349.438 15.787C349.253 15.6563 349.019 15.5887 348.734 15.584C348.466 15.577 348.248 15.6283 348.08 15.738C347.912 15.8453 347.828 15.9888 347.828 16.1685C347.828 16.2688 347.858 16.3552 347.919 16.4275C347.979 16.4975 348.089 16.564 348.248 16.627C348.409 16.69 348.637 16.7588 348.934 16.8335C349.281 16.9222 349.554 17.0155 349.753 17.1135C349.951 17.2115 350.092 17.327 350.176 17.46C350.26 17.593 350.302 17.7575 350.302 17.9535C350.302 18.3105 350.169 18.5917 349.903 18.797C349.64 19 349.276 19.1015 348.811 19.1015ZM352.518 19.105C352.149 19.105 351.83 19.0233 351.559 18.86C351.291 18.6967 351.082 18.4668 350.932 18.1705C350.783 17.8742 350.708 17.5265 350.708 17.1275C350.708 16.7145 350.782 16.3575 350.929 16.0565C351.076 15.7555 351.282 15.5233 351.548 15.36C351.817 15.1967 352.133 15.115 352.497 15.115C352.87 15.115 353.189 15.2013 353.452 15.374C353.716 15.5443 353.916 15.7893 354.051 16.109C354.186 16.4287 354.248 16.8102 354.236 17.2535H353.711V17.0715C353.702 16.5815 353.596 16.2117 353.393 15.962C353.192 15.7123 352.898 15.5875 352.511 15.5875C352.105 15.5875 351.793 15.7193 351.576 15.983C351.362 16.2467 351.254 16.6223 351.254 17.11C351.254 17.586 351.362 17.9558 351.576 18.2195C351.793 18.4808 352.1 18.6115 352.497 18.6115C352.768 18.6115 353.003 18.5497 353.204 18.426C353.407 18.3 353.567 18.1192 353.683 17.8835L354.163 18.069C354.014 18.398 353.793 18.6535 353.501 18.8355C353.212 19.0152 352.884 19.105 352.518 19.105ZM351.072 17.2535V16.823H353.96V17.2535H351.072Z" fill="white" fill-opacity="0.51"/>
</g>
<defs>
<filter id="filter0_f_269_305" x="85" y="-64" width="310" height="310" filterUnits="userSpaceOnUse" color-interpolation-filters="sRGB">
<feFlood flood-opacity="0" result="BackgroundImageFix"/>
<feBlend mode="normal" in="SourceGraphic" in2="BackgroundImageFix" result="shape"/>
<feGaussianBlur stdDeviation="35" result="effect1_foregroundBlur_269_305"/>
</filter>
<filter id="filter1_b_269_305" x="16" y="22" width="120" height="120" filterUnits="userSpaceOnUse" color-interpolation-filters="sRGB">
<feFlood flood-opacity="0" result="BackgroundImageFix"/>
<feGaussianBlur in="BackgroundImageFix" stdDeviation="21"/>
<feComposite in2="SourceAlpha" operator="in" result="effect1_backgroundBlur_269_305"/>
<feBlend mode="normal" in="SourceGraphic" in2="effect1_backgroundBlur_269_305" result="shape"/>
</filter>
<filter id="filter2_bf_269_305" x="233" y="11" width="120" height="120" filterUnits="userSpaceOnUse" color-interpolation-filters="sRGB">
<feFlood flood-opacity="0" result="BackgroundImageFix"/>
<feGaussianBlur in="BackgroundImageFix" stdDeviation="21"/>
<feComposite in2="SourceAlpha" operator="in" result="effect1_backgroundBlur_269_305"/>
<feBlend mode="normal" in="SourceGraphic" in2="effect1_backgroundBlur_269_305" result="shape"/>
<feGaussianBlur stdDeviation="0.25" result="effect2_foregroundBlur_269_305"/>
</filter>
<linearGradient id="paint0_linear_269_305" x1="-10" y1="94" x2="498" y2="94" gradientUnits="userSpaceOnUse">
<stop stop-color="#1F4FA9"/>
<stop offset="0.495" stop-color="#3131A3"/>
<stop offset="1" stop-color="#4B4AD5" stop-opacity="0.29"/>
</linearGradient>
<radialGradient id="paint1_radial_269_305" cx="0" cy="0" r="1" gradientUnits="userSpaceOnUse" gradientTransform="translate(58.3238 65.0711) rotate(44.0741) scale(48.889 78.1909)">
<stop stop-color="#1B1485" stop-opacity="0.4"/>
<stop offset="1" stop-color="white" stop-opacity="0"/>
</radialGradient>
<radialGradient id="paint2_radial_269_305" cx="0" cy="0" r="1" gradientUnits="userSpaceOnUse" gradientTransform="translate(58.3238 65.0711) rotate(44.0741) scale(48.889 78.1909)">
<stop stop-color="#EFEFEF" stop-opacity="0"/>
<stop offset="1" stop-color="#2D37A4"/>
</radialGradient>
<linearGradient id="paint3_linear_269_305" x1="58.6667" y1="64.9818" x2="100.327" y2="84.0154" gradientUnits="userSpaceOnUse">
<stop stop-color="#1B1485" stop-opacity="0.9"/>
<stop offset="1" stop-color="#1B1485" stop-opacity="0"/>
</linearGradient>
<linearGradient id="paint4_linear_269_305" x1="293.5" y1="24" x2="293" y2="130.5" gradientUnits="userSpaceOnUse">
<stop stop-color="#1F4FA9"/>
<stop offset="0.439786" stop-color="#3131A3"/>
<stop offset="0.923308" stop-color="#4B4AD5" stop-opacity="0"/>
</linearGradient>
<radialGradient id="paint5_radial_269_305" cx="0" cy="0" r="1" gradientUnits="userSpaceOnUse" gradientTransform="translate(275.324 54.0711) rotate(44.0741) scale(48.889 78.1909)">
<stop stop-color="#1B1485" stop-opacity="0.4"/>
<stop offset="1" stop-color="white" stop-opacity="0"/>
</radialGradient>
<radialGradient id="paint6_radial_269_305" cx="0" cy="0" r="1" gradientUnits="userSpaceOnUse" gradientTransform="translate(275.324 54.0711) rotate(44.0741) scale(48.889 78.1909)">
<stop stop-color="#EFEFEF" stop-opacity="0"/>
<stop offset="1" stop-color="#2D37A4"/>
</radialGradient>
<linearGradient id="paint7_linear_269_305" x1="275.667" y1="53.9818" x2="317.327" y2="73.0154" gradientUnits="userSpaceOnUse">
<stop stop-color="#1B1485" stop-opacity="0.9"/>
<stop offset="1" stop-color="#1B1485" stop-opacity="0"/>
</linearGradient>
<clipPath id="clip0_269_305">
<rect width="486" height="182" fill="white"/>
</clipPath>
</defs>
</svg>
