<svg width="82" height="16" viewBox="0 0 82 16" fill="none" xmlns="http://www.w3.org/2000/svg">
<g opacity="0.5" clip-path="url(#clip0_11_2554)">
<g clip-path="url(#clip1_11_2554)">
<g clip-path="url(#clip2_11_2554)">
<path d="M50.0083 7.30129C51.1384 7.30129 51.9923 7.60265 52.6201 8.18026C53.248 8.75787 53.5493 9.58661 53.5493 10.6414C53.5493 11.0181 53.5242 11.3697 53.4489 11.7464L53.0722 12.1984L48.8531 12.2235C48.9284 12.5751 49.1293 12.9016 49.4307 13.1025C49.7823 13.3034 50.1841 13.4039 50.611 13.3787C51.4398 13.3285 52.2434 13.2029 53.047 12.9518L53.2731 13.1276L52.7708 15.3878C51.942 15.6138 51.1133 15.7394 50.2594 15.7394C48.8531 15.7394 47.7481 15.3627 46.9696 14.6093C46.1911 13.8559 45.7892 12.8262 45.7892 11.5203C45.7892 10.2144 46.166 9.1848 46.9194 8.43139C47.6728 7.67799 48.7024 7.30129 50.0083 7.30129ZM14.5983 7.30129C15.7284 7.30129 16.5823 7.60265 17.2101 8.18026C17.838 8.75787 18.1393 9.58661 18.1393 10.6414C18.1393 11.0181 18.1142 11.3697 18.0389 11.7464L17.6622 12.1984L13.4431 12.2235C13.5184 12.5751 13.7194 12.9016 14.0207 13.1025C14.3723 13.3034 14.7741 13.4039 15.2011 13.3787C16.0298 13.3285 16.8334 13.2029 17.6371 12.9518L17.8882 13.1276L17.3859 15.3878C16.5572 15.6138 15.7284 15.7394 14.8746 15.7394C13.4682 15.7394 12.3632 15.3627 11.5847 14.6093C10.8062 13.8559 10.4044 12.8262 10.3793 11.5203C10.3793 10.2144 10.756 9.1848 11.5094 8.43139C12.2628 7.67799 13.2924 7.30129 14.5983 7.30129ZM22.8355 7.30129C23.9657 7.30129 24.8195 7.60265 25.4473 8.18026C26.0752 8.75787 26.3765 9.58661 26.3765 10.6414C26.3765 11.0181 26.3514 11.3697 26.2761 11.7464L25.8994 12.1984L21.6803 12.2235C21.7557 12.5751 21.9566 12.9016 22.2579 13.1025C22.6095 13.3034 23.0365 13.4039 23.4383 13.3787C24.267 13.3285 25.0706 13.2029 25.8743 12.9518L26.1254 13.1276L25.6231 15.3878C24.7944 15.6138 23.9657 15.7394 23.1118 15.7394C21.7054 15.7394 20.6004 15.3627 19.8219 14.6093C19.0183 13.8559 18.6416 12.8262 18.6416 11.5203C18.6416 10.2144 19.0183 9.1848 19.7717 8.43139C20.5251 7.67799 21.5296 7.30129 22.8355 7.30129ZM76.4528 7.22594C77.2815 7.30129 78.1354 7.45197 78.939 7.72821L78.5121 10.0135L78.1354 10.1391C77.7587 9.91309 77.3569 9.71218 76.9551 9.5615C76.6537 9.43593 76.3272 9.36059 76.0007 9.36059C75.6994 9.36059 75.5487 9.46104 75.5487 9.66195C75.5487 9.81263 75.6492 9.96331 75.7998 10.0387C76.0761 10.1893 76.3523 10.2898 76.6537 10.3902C77.0806 10.5409 77.4824 10.7167 77.8843 10.9176C78.2107 11.0934 78.5121 11.3697 78.7381 11.671C78.9892 12.0226 79.1148 12.4747 79.0897 12.9016C79.0897 13.3787 78.9641 13.881 78.713 14.2828C78.4368 14.7349 78.0098 15.1116 77.5076 15.3125C76.8546 15.5887 76.1514 15.7143 75.4483 15.6892C74.4688 15.6892 73.4894 15.5385 72.5602 15.2371L72.962 12.8011L73.2383 12.6002C73.6652 12.9267 74.1172 13.1778 74.6195 13.3787C75.0213 13.5545 75.4482 13.655 75.8752 13.6801C76.2017 13.6801 76.3523 13.5797 76.3523 13.3536C76.3523 13.2029 76.2519 13.0523 76.1012 12.9769C75.825 12.8262 75.5487 12.7007 75.2473 12.6253C74.8204 12.4747 74.4186 12.2989 74.0168 12.098C73.6903 11.9222 73.3889 11.671 73.1629 11.3446C72.9118 10.9679 72.7862 10.5409 72.8113 10.0889C72.8113 9.58661 72.962 9.08434 73.2383 8.6323C73.5396 8.18026 73.9917 7.82867 74.4939 7.60265C75.1218 7.3264 75.7747 7.20083 76.4528 7.22594ZM71.3548 3.55938L71.2292 11.9473L71.2543 12.9769C71.2543 13.0774 71.2543 13.1778 71.3045 13.2783C71.3296 13.3285 71.405 13.3787 71.4803 13.3536C71.5808 13.3536 71.6812 13.3285 71.7566 13.3034L71.9575 13.4792L71.6561 15.1869C71.179 15.4883 70.6265 15.6641 70.074 15.6892C69.7224 15.6641 69.3959 15.5385 69.1197 15.3376C68.8434 15.1116 68.6174 14.8353 68.4667 14.4837H68.3411C67.8891 14.9609 67.3366 15.3627 66.7339 15.6641C65.7545 15.7143 64.8253 15.3125 64.1974 14.5842C63.5947 13.8559 63.2682 12.8765 63.2682 11.6208C63.2682 10.2144 63.6449 9.15968 64.3983 8.43139C65.1517 7.7031 66.1814 7.3264 67.4873 7.3264C67.6882 7.3264 67.9142 7.35151 68.1151 7.37663L68.0649 3.7854L71.3548 3.55938ZM29.1139 0.279812C29.139 0.279812 29.139 0.304925 29.1641 0.304925C29.1641 0.330038 29.1893 0.355152 29.1893 0.380265V0.70674C29.1893 0.882535 29.2144 1.05833 29.2144 1.23412C29.2144 1.33458 29.2144 1.46014 29.2395 1.5606C29.2395 1.71128 29.2395 1.86196 29.2646 2.01264C29.2646 2.18843 29.2646 2.33912 29.2144 2.51491C29.1893 2.61536 29.1641 2.6907 29.0888 2.76604C29.2144 2.89161 29.2144 2.89161 29.1893 2.91673C29.2646 2.89161 29.3399 2.89161 29.3902 2.8665L29.8422 2.79116C29.9929 2.76604 30.1436 2.79116 30.2691 2.79116C30.3194 2.79116 30.3696 2.79116 30.4198 2.81627C30.4951 2.81627 30.5454 2.84139 30.6207 2.89161C30.7463 2.94184 30.8467 3.01718 30.9472 3.09252L31.0476 3.19297C31.0728 3.21809 31.0728 3.21809 31.0979 3.21809C31.2234 3.14275 31.3741 3.14275 31.5248 3.11763C31.6001 3.09252 31.6755 3.09252 31.7257 3.09252C31.8262 3.09252 31.9266 3.16786 31.9768 3.26831C32.0522 3.39388 32.1275 3.54456 32.1526 3.69524C32.1778 3.84592 32.1778 3.9966 32.1778 4.14729L32.1775 4.51365L34.6891 4.51369L34.89 4.73971L34.664 7.22594L31.9517 7.12549H30.7212L30.6709 9.10946H31.8262L33.8101 9.05923L33.9859 9.31036L33.785 11.7966L31.6001 11.7464H30.6207V11.9724L30.7463 15.5385H27.3309L27.5066 12.2989L27.3309 4.51369L27.8755 4.51365L27.8586 4.49124C27.8321 4.44463 27.8281 4.38837 27.808 4.34819C27.808 4.27285 27.7829 4.1724 27.7829 4.09706C27.7829 3.82081 27.7829 3.56968 27.7578 3.29343V3.19297C27.7578 3.16786 27.7578 3.14275 27.7076 3.14275C27.582 3.14275 27.4564 3.14275 27.3309 3.09252C27.2053 3.04229 27.1048 2.94184 27.0295 2.84138C26.9793 2.76604 26.9542 2.66559 26.9542 2.56514V2.13821C26.9542 2.06287 26.9793 2.01264 26.9793 1.9373C27.0044 1.73639 27.0295 1.53548 27.0295 1.33458C27.0546 1.13367 27.0546 0.932762 27.0797 0.731854C27.0797 0.656513 27.1048 0.55606 27.1048 0.480719C27.1048 0.455606 27.1299 0.430492 27.1551 0.455606L27.2053 0.505833C27.3057 0.6314 27.356 0.782081 27.4062 0.932762C27.4313 0.982989 27.4313 1.0081 27.4564 1.05833C27.4815 1.05833 27.5066 1.03322 27.5318 1.03322C27.6573 0.982989 27.7829 0.957875 27.9085 0.932762C28.034 0.907648 28.1596 0.907648 28.2852 0.907648C28.4107 0.907648 28.5112 0.957875 28.6116 0.982989C28.6619 1.0081 28.7121 1.03322 28.7874 1.08344C28.7874 1.05833 28.8125 1.0081 28.8125 0.982989C28.8628 0.857421 28.913 0.70674 28.9632 0.581173C28.9883 0.480719 29.0386 0.405379 29.0637 0.304925C29.0637 0.279812 29.0888 0.254698 29.1139 0.279812ZM44.7847 7.47708L44.634 11.9724L44.7596 15.5385H41.4446L41.5953 12.2989L41.4697 7.67799L44.7847 7.47708ZM4.05067 4.51369L4.35203 6.32186L5.63282 12.4747H5.83373L7.39076 6.54788L7.71724 4.51369H11.0573L7.71724 15.5134H3.59863L0.585014 4.51369H4.05067ZM59.7272 7.35151C60.5811 7.35151 61.234 7.55242 61.6861 7.92912C62.1381 8.35605 62.3893 8.95877 62.339 9.58661L62.2637 11.897L62.3893 15.4632L59.0994 15.5134L59.2752 11.0181C59.2752 10.3149 58.9989 9.98843 58.4715 9.98843C58.1953 9.98843 57.9191 10.0638 57.6679 10.2144V11.9222L57.7935 15.4883H54.4534L54.6041 12.2486L54.4785 7.62776L57.6177 7.42685V8.60719H57.7433C58.2958 8.02958 58.9738 7.60265 59.7272 7.35151ZM40.2643 7.45197C40.415 7.47708 40.5405 7.47708 40.6661 7.50219V10.4656L40.3396 10.566C40.1638 10.4656 39.9378 10.4154 39.7369 10.4405C39.4607 10.4405 39.1844 10.5158 38.9333 10.6163C38.657 10.7418 38.3808 10.8925 38.1548 11.0934V11.9473L38.2803 15.5134H34.9905L35.1411 12.2738L35.0156 7.65287L38.1548 7.45197V8.95877H38.3054C38.7826 7.95424 39.4355 7.45197 40.2643 7.45197ZM66.6083 9.83775C66.4576 10.0387 66.3823 9.9382 66.3823 10.5158C66.3823 11.2943 66.4576 12.3742 66.6083 12.7007C66.7339 13.0272 67.0352 13.2281 67.3617 13.2281C67.6631 13.2281 67.9393 13.1025 68.1653 12.8765L68.1905 12.2738L68.1653 9.71218C67.9142 9.61172 67.6631 9.53638 67.4119 9.53638C67.1106 9.51127 66.8092 9.61172 66.6083 9.83775ZM14.5732 9.41082C13.9454 9.41082 13.5687 9.81263 13.4431 10.6163L15.3266 10.5409V10.3149C15.3266 9.71218 15.0755 9.41082 14.5732 9.41082ZM49.933 9.41082C49.3051 9.41082 48.9284 9.81263 48.8029 10.6163L50.6864 10.5409L50.7115 10.3149C50.7115 9.71218 50.4604 9.41082 49.933 9.41082ZM22.8104 9.41082C22.1826 9.41082 21.8059 9.81263 21.6803 10.6163L23.5387 10.5409L23.5638 10.3149C23.5638 9.71218 23.3127 9.41082 22.8104 9.41082ZM80.4458 5.92004L80.6719 6.54788L80.8979 5.92004H81.2243V6.87436H80.9732V6.24652L80.7472 6.87436H80.5714L80.3454 6.24652V6.87436H80.0942L80.1194 5.92004H80.4458ZM79.8933 5.92004V6.12095H79.6171V6.87436H79.366V6.12095H79.0897V5.92004H79.8933ZM43.2026 3.10734C43.6044 3.10734 44.0313 3.25802 44.3327 3.55938C44.634 3.88585 44.7847 4.31278 44.7596 4.73971C44.7847 5.21687 44.6089 5.66891 44.3076 6.0205C43.9811 6.34697 43.529 6.52277 43.0519 6.49765C42.625 6.52277 42.1729 6.37209 41.8716 6.07073C41.5702 5.74425 41.4446 5.31732 41.4697 4.86528C41.4446 4.38812 41.6204 3.91097 41.9469 3.58449C42.2734 3.25802 42.7254 3.08222 43.2026 3.10734ZM31.2486 3.39388C31.2486 3.39388 31.2486 3.41899 31.2737 3.41899C31.2988 3.49434 31.3239 3.54456 31.349 3.6199C31.3992 3.77058 31.4243 3.92126 31.4495 4.07194C31.4746 4.19751 31.4746 4.32308 31.4746 4.44865C31.4746 4.47687 31.4666 4.49716 31.4508 4.51398L31.8733 4.5138C31.8752 4.45859 31.8764 4.40339 31.8764 4.34819C31.8764 4.1724 31.8513 4.02172 31.8262 3.84592C31.8262 3.77058 31.7759 3.69524 31.7508 3.6199C31.7006 3.49434 31.6001 3.44411 31.4746 3.41899C31.3992 3.41899 31.3239 3.39388 31.2486 3.39388ZM30.9974 3.94638H30.9472V4.1724C30.9472 4.24774 30.9472 4.32308 30.9221 4.39842C30.9221 4.44865 30.897 4.47376 30.8719 4.49887L30.8607 4.51365L31.1222 4.51418C31.0938 4.48849 31.0728 4.45601 31.0728 4.42353V3.9966C31.0728 3.92126 31.0728 3.92126 30.9974 3.94638ZM29.5408 3.69524C29.4153 3.72036 29.2897 3.74547 29.1641 3.74547C29.0386 3.77058 28.9381 3.82081 28.8377 3.89615C28.8377 3.89615 28.8125 3.92126 28.8125 3.94638C28.8125 4.04683 28.8125 4.14729 28.8377 4.24774C28.8377 4.29797 28.8628 4.34819 28.8628 4.39842L28.8624 4.51365H30.5609L30.552 4.50476C30.5344 4.48475 30.5203 4.4612 30.5203 4.42353V4.22263C30.5203 4.09706 30.5203 3.94638 30.4951 3.82081C30.4951 3.7957 30.47 3.77058 30.4449 3.77058L30.0682 3.69524C29.8924 3.67013 29.7166 3.69524 29.5408 3.69524ZM28.3856 3.84592H28.2852V4.37331C28.2852 4.42277 28.2743 4.47223 28.2598 4.51459L28.4473 4.51396C28.4358 4.4843 28.4358 4.45034 28.4358 4.42353C28.4358 4.24774 28.4107 4.04683 28.4107 3.87104C28.4107 3.84592 28.4107 3.84592 28.3856 3.84592Z" fill="white"/>
</g>
</g>
</g>
<defs>
<clipPath id="clip0_11_2554">
<rect width="81" height="15.47" fill="white" transform="translate(0.5 0.269989)"/>
</clipPath>
<clipPath id="clip1_11_2554">
<rect width="81" height="15.47" fill="white" transform="translate(0.5 0.269989)"/>
</clipPath>
<clipPath id="clip2_11_2554">
<rect width="80.99" height="15.47" fill="white" transform="translate(0.505 0.269989)"/>
</clipPath>
</defs>
</svg>
