<svg width="82" height="40" viewBox="0 0 82 40" fill="none" xmlns="http://www.w3.org/2000/svg">
<g opacity="0.5" clip-path="url(#clip0_11_2516)">
<g clip-path="url(#clip1_11_2516)">
<path d="M25.5054 13.9424H12.8723C12.8723 16.9887 15.887 17.0325 15.887 17.0325H24.5006L12.8723 36.3646C12.8723 39.2672 15.8153 39.2752 15.8153 39.2752H28.269C28.269 36.3928 25.5054 36.3646 25.5054 36.3646H15.887L28.269 17.0325C28.269 13.9424 25.5054 13.9424 25.5054 13.9424Z" fill="white"/>
<path d="M46.1258 13.9424H36.4784C36.4784 13.9424 33.6399 14.2622 33.6399 17.0754H49.126C49.126 17.0754 48.9563 13.9424 46.1258 13.9424Z" fill="white"/>
<path d="M36.4838 39.2752H46.1496C49.1554 39.2752 49.126 36.4107 49.126 36.4107H33.6399C33.6399 39.2752 36.4838 39.2752 36.4838 39.2752Z" fill="white"/>
<mask id="mask0_11_2516" style="mask-type:luminance" maskUnits="userSpaceOnUse" x="12" y="0" width="58" height="40">
<path d="M12.8723 39.2744H69.8777V0.425537H12.8723V39.2744Z" fill="white"/>
</mask>
<g mask="url(#mask0_11_2516)">
<path d="M33.6283 28.0286H49.1207V25.1181H33.6283V28.0286Z" fill="white"/>
</g>
<mask id="mask1_11_2516" style="mask-type:luminance" maskUnits="userSpaceOnUse" x="12" y="0" width="58" height="40">
<path d="M12.8723 39.2744H69.8777V0.425537H12.8723V39.2744Z" fill="white"/>
</mask>
<g mask="url(#mask1_11_2516)">
<path d="M66.9651 17.034V34.371C66.9651 34.371 66.938 36.3444 65.204 36.3444L58.9193 36.3641C58.9193 36.3641 57.152 36.3641 57.152 34.3549L57.163 18.3029C57.163 18.3029 57.163 17.034 58.8867 17.034H66.9651ZM69.8767 36.3641V0.425568H66.9651V13.9441H57.2596C54.3774 13.9441 54.3482 17.034 54.3482 17.034V36.3641C54.3482 39.268 57.152 39.2743 57.152 39.2743H67.0012C70.0138 39.2743 69.8767 36.3641 69.8767 36.3641Z" fill="white"/>
</g>
</g>
</g>
<defs>
<clipPath id="clip0_11_2516">
<rect width="81" height="40" fill="white" transform="translate(0.5)"/>
</clipPath>
<clipPath id="clip1_11_2516">
<rect width="57.8723" height="40" fill="white" transform="translate(12.0638)"/>
</clipPath>
</defs>
</svg>
